<?xml version="1.0" encoding="utf-8"?>
<!-- Generator: Adobe Illustrator 27.5.0, SVG Export Plug-In . SVG Version: 6.00 Build 0)  -->
<svg version="1.1"
	xmlns="http://www.w3.org/2000/svg"
	xmlns:xlink="http://www.w3.org/1999/xlink" x="0px" y="0px" viewBox="0 0 500 500" style="enable-background:new 0 0 500 500;" xml:space="preserve">
	<g id="BACKGROUND">
		<rect style="fill:none;" width="500" height="500"/>
	</g>
	<g id="OBJECTS">
		<g>
			<path style="fill:none;" d="M332.126,213.547c-28.355,28.11-67.225,40.1-101.104,59.692
			c-17.56,10.165-32.326,22.448-44.915,38.37c-11.442,14.487-24.254,30.173-43.715,32.961c-17.158,2.467-33.498-6.775-46.011-17.654
			c-13.244-11.513-23.701-26.128-31.106-41.993c-16.173-34.655-19.783-75.319-11.52-113.153
			c3.076-21.83,10.331-42.967,22.707-61.413c21.344-31.822,56.395-50.832,92.849-60.312c66.108-17.211,159.277-2.951,186.201,69.496
			c6.059,16.295,7.527,34.562,2.799,51.389C353.75,187.226,344.067,201.72,332.126,213.547z"/>
			<path style="fill:#FFF6CC;" d="M416.692,399.156c-32.803,26.14-80.477,24.76-112.182-2.239
			c-24.517-20.882-34.697-53.53-28.793-84.095c0.346-2.189,0.755-4.361,1.284-6.524c1.158-4.694,2.802-9.019,4.868-12.992
			c0.67-1.502,1.368-2.989,2.13-4.461c0.503-0.972,1.157-1.673,1.894-2.141c8.746-12.326,22.12-20.535,37.707-25.022
			c39.654-11.408,85.755-2.024,110.418,33.064C457.905,328.732,448.465,373.831,416.692,399.156z"/>
		</g>
		<ellipse style="fill:#EAF8F9;" cx="247.186" cy="441.145" rx="218.179" ry="14.737"/>
		<g>
			<path style="fill:#1F1E42;" d="M335.845,422.751c-14.179-10.228-32.235-17.135-50.493-18.902v-58.547c0-6.194-9.626-6.204-9.626,0
			v58.117c-17.623,0.096-34.832,5.291-48.299,17.278c-4.637,4.127,2.191,10.915,6.807,6.807
			c11.438-10.181,26.453-14.355,41.492-14.348v7.424c0,6.194,9.626,6.204,9.626,0v-6.883c16.563,1.771,32.076,7.586,45.634,17.366
			C336.018,434.692,340.828,426.345,335.845,422.751z"/>
			<path style="fill:#6A6C93;" d="M254.935,321.286c-6.5-5.84-10.233-13.651-12.66-21.928c-2.381-8.119-5.416-18.735-3.905-27.214
			c1.089-6.107-8.389-7.806-9.476-1.705c-1.839,10.315,1.473,22.423,4.37,32.311c2.895,9.882,7.797,19.002,15.512,25.933
			C253.393,332.832,259.54,325.424,254.935,321.286z"/>
			<path style="fill:#1F1E42;" d="M331.238,338.812h-97.684c-2.855,0-5.191-2.336-5.191-5.191v-9.865
			c0-2.855,2.336-5.191,5.191-5.191h97.684c2.855,0,5.191,2.336,5.191,5.191v9.865C336.429,336.476,334.093,338.812,331.238,338.812
			z"/>
			<g>
				<path style="fill:#1F1E42;" d="M245.582,214.447v61.691c0,2.855-2.336,5.191-5.191,5.191H227.43
				c-2.855,0-5.191-2.336-5.191-5.191v-61.691c0-2.855,2.336-5.191,5.191-5.191h12.961
				C243.246,209.256,245.582,211.592,245.582,214.447z"/>
				<path style="fill:#42425B;" d="M245.582,214.447v61.691c0,2.855-2.336,5.191-5.191,5.191h-3.305
				c-2.855,0-5.191-2.336-5.191-5.191v-61.691c0-2.855,2.336-5.191,5.191-5.191h3.305
				C243.246,209.256,245.582,211.592,245.582,214.447z"/>
			</g>
			<rect x="249.695" y="338.812" style="fill:#6A6C93;" width="65.402" height="11.003"/>
			<circle style="fill:#6A6C93;" cx="232.127" cy="423.045" r="12.07"/>
			<circle style="fill:#1F1E42;" cx="232.127" cy="423.045" r="7.96"/>
			<circle style="fill:#6A6C93;" cx="280.297" cy="423.971" r="12.07"/>
			<circle style="fill:#1F1E42;" cx="280.297" cy="423.971" r="7.96"/>
			<circle style="fill:#6A6C93;" cx="336.429" cy="429.17" r="12.07"/>
			<circle style="fill:#1F1E42;" cx="336.429" cy="429.17" r="7.96"/>
		</g>
		<g>
			<path style="fill:#FFCC71;" d="M401.115,248.835c5.16,1.502,9.905,4.207,14.372,7.21c1.819,1.232,3.822,2.955,3.581,5.14
			c-0.039,0.375-0.164,0.76-0.414,1.03c-0.472,0.501-1.242,0.52-1.925,0.501c-12.071-0.298-24.133-0.683-36.194-1.194
			c-0.039-2.792-0.077-5.573-0.116-8.365c0-0.298-0.01-0.597-0.039-0.905c3.379-1.059,6.767-2.108,10.146-3.157
			c1.608-0.501,3.234-1.011,4.919-1.107c1.713-0.096,3.436,0.231,5.092,0.683C400.73,248.719,400.922,248.777,401.115,248.835z"/>
			<path style="fill:#EFA42B;" d="M401.115,248.835c-0.193-0.058-0.385-0.116-0.578-0.164c-1.656-0.452-3.379-0.78-5.092-0.683
			c-1.685,0.096-3.311,0.606-4.919,1.107c-3.379,1.049-6.767,2.098-10.146,3.157c-0.048-0.645-0.144-1.3-0.375-1.867
			c3.687-2.715,7.797-4.852,12.129-6.324c0.722-0.241,1.482-0.472,2.243-0.395c0.857,0.077,1.617,0.539,2.329,1.02
			C398.371,245.841,399.863,247.246,401.115,248.835z"/>
			<path style="fill:#1F1E42;" d="M315.616,126.545c-3.186,5.179-7.152,9.867-11.734,13.862c-0.096-1.29-0.231-2.599-0.809-3.745
			c-0.626-1.242-1.906-2.272-3.292-2.147c-0.799,0.067-1.521,0.501-2.156,0.991c-2.705,2.098-4.284,5.593-4.072,9.01h-0.048
			c-1.954,3.273-4.832,5.997-8.221,7.759c-0.712,0.366-1.463,0.703-2.262,0.751c0-4.823-1.704-9.453-3.071-14.083
			c-1.405-4.775-2.455-9.915-0.953-14.651c2.012-6.305,8.875-10.666,15.44-9.809c-1.001-2.561,1.184-5.496,3.831-6.228
			c2.657-0.741,5.477,0.135,7.99,1.242c4.957,2.175,9.511,5.285,14.67,6.902c6.43,2.012,13.342,1.579,20.032,0.818
			c0.616-0.067,1.396-0.048,1.646,0.51c0.212,0.491-0.144,1.02-0.501,1.415c-2.32,2.628-5.439,4.534-8.827,5.41
			c3.196,0.876,6.372,1.858,9.52,2.926c0.279,0.096,0.606,0.231,0.693,0.52c0.077,0.27-0.087,0.549-0.25,0.77
			c-1.444,1.906-3.773,2.965-6.113,3.475c-2.58,0.568-5.188,0.558-7.759,0.125c-4.813-0.799-9.501-3.071-13.65-5.756
			L315.616,126.545z"/>
			<g>
				<path style="fill:#FFCC71;" d="M325.232,145.557c-0.202,0.327-0.433,0.674-0.472,1.059c-0.029,0.337,0.087,0.683,0.192,1.011
				c0.809,2.301,1.608,4.601,2.416,6.902c0.067,0.202,0.144,0.424,0.096,0.635c-0.058,0.279-0.308,0.472-0.539,0.635
				c-1.194,0.837-2.493,1.531-3.87,2.05c-0.568,1.713-1.636,3.244-2.686,4.726c-2.079,2.955-4.158,5.92-6.238,8.875
				c-0.183,0.26-0.414,0.549-0.732,0.578c-0.221,0.01-0.433-0.106-0.616-0.212c-1.425-0.837-2.801-1.733-4.139-2.705
				c-0.452,1.04-0.857,2.098-1.242,3.157c-0.395,1.107-0.751,2.233-1.068,3.359l-0.135,0.125c-0.077-0.096-0.164-0.183-0.25-0.279
				c-1.04-1.117-2.07-2.233-3.148-3.311c-1.136-1.136-2.31-2.233-3.504-3.302c-2.541-2.291-5.169-4.476-7.682-6.796
				c-2.936-2.705-5.708-5.583-8.298-8.615c-0.077,0.048-0.154,0.096-0.221,0.135l-0.077-0.125v-0.433
				c0.799-0.048,1.55-0.385,2.262-0.751c3.388-1.762,6.267-4.486,8.221-7.759h0.048c-0.212-3.417,1.367-6.911,4.072-9.01
				c0.635-0.491,1.357-0.924,2.156-0.991c1.386-0.125,2.666,0.905,3.292,2.147c0.578,1.145,0.712,2.455,0.809,3.745
				c4.582-3.995,8.548-8.683,11.734-13.862l0.106,0.067c4.149,2.686,8.837,4.957,13.65,5.756l-0.019,0.087
				C329.189,137.086,327.755,141.668,325.232,145.557z"/>
				<path style="fill:#EFA42B;" d="M307.405,172.269c-0.395,1.107-0.751,2.233-1.068,3.359l-0.135,0.125
				c-0.077-0.096-0.164-0.183-0.25-0.279c-1.04-1.117-2.07-2.233-3.148-3.311c-1.136-1.136-2.31-2.233-3.504-3.302l0.144-0.164
				c-0.01-2.484-0.019-4.986,0.375-7.441c2.647,2.926,5.612,5.573,8.827,7.855C308.194,170.151,307.79,171.21,307.405,172.269z"/>
			</g>
			<g>
				<path style="fill:#423D66;" d="M273.107,369.959c3.668,0.539,7.297,1.29,10.877,2.253c2.253,7.268,5.978,14.083,10.849,19.936
				c-7.72,2.407-14.429,7.297-20.783,12.331c-2.522,2.002-5.015,4.053-7.258,6.363c-6.055,6.228-10.136,14.333-11.542,22.891
				c-0.067,0.433-0.144,0.886-0.443,1.203c-0.308,0.347-0.799,0.452-1.261,0.529c-0.452,0.077-0.895,0.144-1.348,0.212
				c-0.404-11.34,1.733-22.679,5.16-33.508c3.504-11.07,8.346-21.659,13.294-32.151l0.039-0.385
				C271.5,369.728,272.308,369.834,273.107,369.959z"/>
				<path style="fill:#423D66;" d="M283.388,370.21l0.058,0.154c0.173,0.616,0.347,1.232,0.539,1.848
				c-3.581-0.963-7.21-1.713-10.877-2.253c0.308-2.002,0.529-4.024,0.683-6.045c3.995,0.876,8.076,1.405,12.167,1.569
				c0.212,1.174,0.424,2.358,0.635,3.533C285.525,369.42,284.457,369.815,283.388,370.21z"/>
				<path style="fill:#1F1E42;" d="M273.791,363.914c-0.154,2.021-0.375,4.043-0.683,6.045c-0.799-0.125-1.608-0.231-2.416-0.327
				c-0.818-0.096-1.646-0.183-2.464-0.26c0.529-1.848,1.068-3.696,1.608-5.545c0.048-0.193,0.116-0.395,0.26-0.52
				c0.25-0.202,0.616-0.135,0.934-0.048C271.943,363.5,272.867,363.712,273.791,363.914z"/>
				<path style="fill:#1F1E42;" d="M268.227,369.372c0.818,0.077,1.646,0.164,2.464,0.26l-0.039,0.385
				c-4.948,10.492-9.79,21.081-13.294,32.151c-3.427,10.829-5.564,22.169-5.16,33.508c-1.29,0.183-2.589,0.298-3.889,0.356
				c-0.443,0.019-0.914,0.029-1.3-0.202c-0.616-0.366-0.76-1.194-0.828-1.906c-1.377-14.401,1.068-29.138,6.998-42.326
				c1.916-0.953,3.773-2.041,5.545-3.234l-0.183-0.289c-1.627-0.279-3.244-0.558-4.871-0.847c1.685-5.91,3.956-11.648,6.777-17.115
				c0.173-0.347,0.375-0.722,0.722-0.924c0.347-0.202,0.77-0.202,1.184-0.193C264.319,369.064,266.273,369.189,268.227,369.372z"/>
			</g>
			<path style="fill:#DB8B16;" d="M301.937,139.913c-0.327-0.957-0.806-2.08-1.916-2.309c-1.072-0.222-2.006,0.625-2.597,1.423
			c-0.589,0.795-0.92,1.779-0.957,2.766c-0.033,0.876,0.149,2.158,1.109,2.494c1.347,0.471,2.227-1.209,2.279-2.299
			c0.03-0.619-0.933-0.618-0.963,0c-0.022,0.459-0.207,0.989-0.588,1.277c-0.316,0.238-0.555,0.101-0.702-0.228
			c-0.339-0.757-0.189-1.756,0.087-2.506c0.275-0.748,0.87-1.61,1.629-1.93c0.968-0.408,1.456,0.883,1.69,1.568
			C301.208,140.751,302.138,140.501,301.937,139.913z"/>
			<path style="fill:#DB8B16;" d="M318.645,163.222c-1.004-0.401-1.983-0.839-2.811-1.55c-0.769-0.66-1.402-1.451-1.934-2.309
			c-0.326-0.525-1.159-0.043-0.831,0.486c0.588,0.947,1.292,1.838,2.148,2.558c0.948,0.798,2.031,1.288,3.173,1.744
			c0.241,0.096,0.529-0.105,0.592-0.336C319.056,163.54,318.887,163.319,318.645,163.222z"/>
			<path style="fill:#1F1E42;" d="M321.898,137.061c-1.712-0.006-3.444,0.314-5.024,0.975c-0.363,0.152-0.656,0.309-0.863,0.664
			c-0.181,0.309-0.258,0.766-0.146,1.113c0.113,0.349,0.33,0.686,0.664,0.863c0.318,0.168,0.764,0.292,1.113,0.146
			c0.908-0.38,1.859-0.634,2.831-0.783c0.474-0.054,0.948-0.091,1.425-0.089c0.755,0.003,1.479-0.666,1.444-1.444
			C323.307,137.721,322.707,137.064,321.898,137.061z"/>
			<path style="fill:#1F1E42;" d="M322.66,143.669c-0.006-0.068-0.015-0.136-0.027-0.204c-0.005-0.069-0.014-0.137-0.028-0.204
			c-0.003-0.012-0.006-0.023-0.01-0.035c-0.025-0.085-0.112-0.278-0.15-0.356c-0.013-0.026-0.027-0.05-0.044-0.074
			c-0.095-0.135-0.197-0.271-0.31-0.392c-0.146-0.158-0.328-0.289-0.503-0.41c-0.038-0.027-0.078-0.051-0.119-0.072
			c-0.151-0.078-0.311-0.145-0.471-0.2c-0.051-0.017-0.103-0.029-0.156-0.037c-0.154-0.023-0.316-0.057-0.475-0.054
			c-0.007-0.001-0.014-0.002-0.021-0.003c-0.02-0.001-0.041-0.002-0.061-0.001c-0.143,0.006-0.294,0.032-0.434,0.057
			c-0.023,0.004-0.046,0.009-0.069,0.015c-0.02,0.006-0.038,0.013-0.057,0.021c-0.127,0.05-0.26,0.101-0.382,0.163
			c-0.021,0.011-0.042,0.023-0.062,0.037c-0.049,0.033-0.094,0.072-0.142,0.109c-0.046,0.033-0.089,0.067-0.136,0.104
			c-0.018,0.015-0.038,0.028-0.056,0.043c-0.032,0.027-0.062,0.055-0.089,0.087c-0.001,0.001-0.001,0.001-0.002,0.002
			c-0.003,0.004-0.008,0.006-0.011,0.01c-0.089,0.101-0.18,0.219-0.256,0.331c-0.013,0.019-0.025,0.038-0.036,0.058
			c-0.065,0.125-0.123,0.266-0.169,0.398c-0.009,0.025-0.016,0.05-0.022,0.076c0,0.002,0,0.003-0.001,0.005
			c-0.001,0.005-0.003,0.01-0.004,0.015c-0.002,0.011-0.002,0.023-0.005,0.033c-0.025,0.093-0.038,0.186-0.038,0.279
			c-0.005,0.045-0.015,0.089-0.018,0.133c-0.003,0.042-0.001,0.082,0.003,0.124c0.015,0.14,0.03,0.286,0.059,0.424
			c0.006,0.027,0.013,0.053,0.022,0.079c0.046,0.129,0.103,0.259,0.16,0.383c0.009,0.019,0.017,0.037,0.027,0.055
			c0.078,0.143,0.195,0.274,0.295,0.395c0.027,0.032,0.055,0.062,0.086,0.09c0.102,0.09,0.215,0.171,0.324,0.252
			c0.022,0.017,0.045,0.033,0.068,0.048c0.135,0.083,0.292,0.135,0.437,0.194c0.042,0.017,0.084,0.032,0.128,0.041
			c0.142,0.03,0.291,0.045,0.435,0.06c0.022,0.002,0.043,0.004,0.065,0.005c0.107,0.004,0.217-0.019,0.321-0.033
			c0.106-0.014,0.215-0.022,0.318-0.054c0.156-0.049,0.309-0.119,0.455-0.189c0.042-0.02,0.083-0.044,0.122-0.071
			c0.133-0.092,0.266-0.191,0.386-0.3c0.035-0.032,0.067-0.066,0.097-0.103c0.102-0.124,0.211-0.251,0.294-0.39
			c0.013-0.021,0.024-0.043,0.034-0.066c0.06-0.128,0.127-0.268,0.167-0.404c0.019-0.064,0.029-0.201,0.031-0.216
			c-0.001,0.011,0.027-0.153,0.029-0.216C322.66,143.694,322.66,143.682,322.66,143.669z"/>
			<g>
				<g>
					<path style="fill:#F44063;" d="M327.706,270.282c-1.271,5.352-2.551,10.695-3.87,16.037c2.012,1.04,3.802,2.503,5.217,4.284
					c0.356,0.452,0.722,1.03,0.539,1.588c-0.193,0.626-0.943,0.866-1.588,1.011c-1.434,0.337-2.878,0.664-4.313,0.992
					c2.541,1.203,4.447,3.648,5.034,6.401c0.038,0.202,0.077,0.404,0.106,0.606c-6.026-1.117-12.11-1.916-18.222-2.397
					c-18.453-1.444-37.137,0.019-55.138,4.37c-0.443,0.106-0.895,0.212-1.338,0.327l-0.491,0.038
					c-0.539-7.585,0.356-15.267,2.628-22.525c0.375-1.174,0.76-2.532,0.087-3.571c-0.385-0.606-1.068-0.972-1.473-1.569
					c-1.271-1.848,0.847-4.178,2.869-5.16c0.597-0.289,1.309-0.741,1.194-1.396c-0.067-0.337-0.356-0.587-0.616-0.818
					c-2.214-1.916-3.822-4.515-4.553-7.345c1.078-0.645,2.378-0.914,3.619-0.76c0.549-13.91-1.993-27.752-2.512-41.662
					c-0.51-13.91,1.28-28.599,9.414-39.9c0.433-0.606,0.905-1.232,1.011-1.973c0.125-0.905-0.318-1.79-0.472-2.686
					c-0.298-1.723,0.529-3.581,2.012-4.495c1.473-0.924,3.514-0.847,4.919,0.173c-0.27-1.54-0.539-3.138-0.221-4.669
					c0.318-1.54,1.367-3.032,2.888-3.388c1.964-0.472,3.966,1.001,5.939,0.943c-0.606-1.02-1.184-2.05-1.733-3.1
					c0.655-2.474,2.281-4.678,4.457-6.055c0.067-0.039,0.144-0.087,0.221-0.135c2.589,3.032,5.362,5.91,8.298,8.615
					c2.512,2.32,5.14,4.505,7.682,6.796c1.194,1.068,2.368,2.166,3.504,3.302c1.078,1.078,2.108,2.195,3.148,3.311
					c0.087,0.096,0.173,0.183,0.25,0.279l0.135-0.125c0.318-1.126,0.674-2.252,1.068-3.359c2.618,2.657,5.121,5.439,7.508,8.307
					c-1.068,4.601-2.07,9.222-2.994,13.852c5.593,13.669,11.022,27.405,16.278,41.209c0.722,0.048,1.425,0.308,1.954,0.799
					c1.261,1.146,1.367,3.34,0.231,4.611c1.656-0.539,3.321-1.068,4.986-1.608c0.674-0.221,1.492-0.414,2.031,0.048
					c0.616,0.52,0.443,1.482,0.183,2.243c-0.424,1.232-0.963,2.426-1.598,3.562l0.462,0.106c10.849,0.847,21.668,2.002,32.459,3.465
					c0.038-0.212,0.096-0.404,0.193-0.587c0.558-1.097,2.281-1.04,3.167-0.193c0.895,0.837,1.184,2.127,1.425,3.331
					c1.3-1.617,3.359-3.408,5.169-2.397c0.558,0.308,0.914,0.789,1.146,1.367c0.231,0.568,0.327,1.222,0.375,1.867
					c0.029,0.308,0.038,0.606,0.038,0.905c0.039,2.792,0.077,5.573,0.116,8.365c0.048,3.109,0.087,6.228,0.135,9.347
					C363.015,271.158,345.351,270.965,327.706,270.282z"/>
					<path style="fill:#C61E47;" d="M368.906,248.864c-0.164,0.789-0.067,1.704-0.722,2.108c-0.366,0.221-0.828,0.173-1.251,0.125
					c-10.743-1.28-21.476-2.551-32.218-3.831c0.462-0.635,0.886-1.3,1.271-1.973l0.462,0.106
					C347.295,246.245,358.115,247.4,368.906,248.864z"/>
					<path style="fill:#C61E47;" d="M328.727,300.594c0.038,0.202,0.077,0.404,0.106,0.606c-6.026-1.117-12.11-1.916-18.222-2.397
					c-17.404-31.766-33.364-64.783-41.2-100.14c10.001,23.94,23.516,46.407,39.967,66.468c1.165,1.415,2.387,2.859,4.014,3.687
					c1.723,0.886,3.725,1.001,5.66,1.097c2.878,0.135,5.766,0.26,8.654,0.366c-1.271,5.352-2.551,10.695-3.87,16.037
					c2.012,1.04,3.802,2.503,5.217,4.284c0.356,0.452,0.722,1.03,0.539,1.588c-0.193,0.626-0.943,0.866-1.588,1.011
					c-1.434,0.337-2.878,0.664-4.312,0.991C326.234,295.396,328.14,297.841,328.727,300.594z"/>
					<path style="fill:#C61E47;" d="M328.197,235.637c-0.982-0.077-1.993,0.26-2.666,0.991c-4.293-7.72-8.086-15.71-11.349-23.921
					c-1.559-3.927-3.003-7.922-4.726-11.782l1.271-0.51c-0.01-0.048-0.019-0.106-0.029-0.154l0.077-0.01
					c0.366-1.944,0.751-3.879,1.146-5.824C317.512,208.097,322.941,221.834,328.197,235.637z"/>
					<path style="fill:#A0133C;" d="M311.92,194.428c-0.395,1.944-0.78,3.879-1.146,5.824l-0.077,0.01
					c-1.126-6.844-1.916-13.746-2.368-20.667c-0.029-0.395-0.048-0.789-0.125-1.174c-0.048-0.221-0.116-0.443-0.212-0.655
					l0.039-0.038c-0.606-0.655-1.213-1.309-1.829-1.973l0.135-0.125c0.318-1.126,0.674-2.253,1.068-3.359
					c2.618,2.657,5.121,5.439,7.508,8.307C313.845,185.178,312.844,189.798,311.92,194.428z"/>
					<path style="fill:#C61E47;" d="M300.349,186.034c1.694-3.302,4.505-6.026,7.855-7.614c0.077,0.385,0.096,0.78,0.125,1.174
					c0.452,6.921,1.242,13.823,2.368,20.667c0.01,0.048,0.019,0.106,0.029,0.154l-1.271,0.51c-0.78-1.752-1.617-3.485-2.551-5.16
					c-1.867-3.359-4.149-6.565-6.931-9.222l0.241-0.26C300.253,186.198,300.301,186.111,300.349,186.034z"/>
					<path style="fill:#A0133C;" d="M299.734,185.328c-5.361-5.126-10.243-10.749-14.542-16.795
					c-1.232-1.732-2.415-3.499-3.552-5.295c-0.331-0.522-1.164-0.04-0.831,0.486c4.012,6.335,8.619,12.292,13.754,17.758
					c1.456,1.549,2.954,3.057,4.49,4.526C299.501,186.437,300.182,185.757,299.734,185.328z"/>
				</g>
				<path style="fill:#C61E47;" d="M278.963,171.873c-0.182-0.311-0.539-0.608-0.896-0.689c-0.741-0.169-1.686,0.224-1.845,1.048
				c-0.34,1.758-0.787,3.492-1.34,5.195c-0.242,0.747,0.282,1.671,1.048,1.845c0.823,0.187,1.586-0.248,1.845-1.048
				c0.553-1.703,1-3.437,1.34-5.195C279.192,172.628,279.175,172.235,278.963,171.873z"/>
				<path style="fill:#C61E47;" d="M275.989,184.233c-1.125-0.013-2.249-0.069-3.369-0.176c-0.285-0.027-0.571-0.057-0.855-0.09
				c-0.131-0.015-0.263-0.032-0.394-0.048c-0.03-0.004-0.046-0.005-0.063-0.007c-0.018-0.003-0.033-0.005-0.063-0.009
				c-0.568-0.081-1.134-0.172-1.698-0.276c-0.769-0.141-1.654,0.21-1.845,1.048c-0.167,0.735,0.222,1.694,1.048,1.845
				c2.389,0.437,4.811,0.686,7.24,0.713c0.785,0.009,1.536-0.696,1.5-1.5C277.452,184.913,276.83,184.243,275.989,184.233z"/>
				<path style="fill:#C61E47;" d="M289.321,180.917c-1.553-0.438-3.105-0.877-4.658-1.315c-0.755-0.213-1.666,0.261-1.845,1.048
				c-0.182,0.797,0.239,1.617,1.048,1.845c1.553,0.438,3.105,0.877,4.658,1.315c0.755,0.213,1.666-0.261,1.845-1.048
				C290.55,181.965,290.129,181.145,289.321,180.917z"/>
				<path style="fill:#C61E47;" d="M287.126,187.161c-0.757-0.172-1.667,0.228-1.845,1.048c-0.328,1.505-0.656,3.01-0.984,4.515
				c-0.167,0.765,0.228,1.659,1.048,1.845c0.757,0.172,1.667-0.228,1.845-1.048c0.328-1.505,0.656-3.01,0.984-4.515
				C288.34,188.241,287.945,187.348,287.126,187.161z"/>
				<path style="fill:#C61E47;" d="M279.59,199.026c-1.121-1.826-2.396-3.558-3.791-5.183c-0.513-0.598-1.602-0.566-2.121,0
				c-0.584,0.636-0.547,1.484,0,2.121c0.388,0.452,0.762,0.915,1.129,1.384c0.783,1.027,1.518,2.091,2.193,3.192
				c0.41,0.668,1.361,0.984,2.052,0.538C279.723,200.646,280.029,199.742,279.59,199.026z"/>
				<path style="fill:#C61E47;" d="M269.158,193.207c-0.206-0.32-0.514-0.602-0.896-0.689c-0.365-0.083-0.845-0.088-1.156,0.151
				c-1.58,1.216-3.309,2.224-5.144,3.002c-0.321,0.136-0.602,0.579-0.689,0.896c-0.099,0.359-0.054,0.837,0.151,1.156
				c0.206,0.32,0.514,0.602,0.896,0.689c0.421,0.096,0.763,0.015,1.156-0.151c1.836-0.777,3.564-1.786,5.144-3.001
				c0.324-0.249,0.576-0.485,0.689-0.896C269.408,194.004,269.363,193.526,269.158,193.207z"/>
				<path style="fill:#C61E47;" d="M270.227,209.299c-1.385-1.186-2.728-2.421-4.024-3.704c-0.558-0.552-1.571-0.599-2.121,0
				c-0.547,0.596-0.596,1.532,0,2.121c1.296,1.283,2.639,2.518,4.024,3.704c0.307,0.263,0.645,0.439,1.061,0.439
				c0.368,0,0.807-0.163,1.061-0.439c0.262-0.286,0.457-0.661,0.439-1.061C270.65,209.98,270.527,209.556,270.227,209.299z"/>
				<path style="fill:#C61E47;" d="M264.991,216.809c-0.848-0.193-1.555,0.258-1.845,1.048c-0.863,2.35-1.726,4.7-2.589,7.051
				c-0.271,0.738,0.303,1.676,1.048,1.845c0.848,0.193,1.555-0.258,1.845-1.048c0.863-2.35,1.726-4.7,2.589-7.051
				C266.31,217.916,265.736,216.978,264.991,216.809z"/>
				<path style="fill:#C61E47;" d="M260.349,209.074c-0.047-0.344-0.406-0.731-0.689-0.896c-0.322-0.188-0.795-0.268-1.156-0.151
				c-0.363,0.117-0.713,0.342-0.896,0.689c-0.05,0.119-0.101,0.239-0.151,0.358c-0.044,0.164-0.051,0.328-0.041,0.492
				c0.2,1.518,0.254,3.051,0.161,4.579c-0.047,0.785,0.724,1.535,1.5,1.5c0.853-0.038,1.449-0.659,1.5-1.5
				C260.68,212.444,260.578,210.761,260.349,209.074z"/>
				<path style="fill:#C61E47;" d="M273.485,228.617c-0.206-0.32-0.514-0.602-0.896-0.689c-0.419-0.095-0.766-0.019-1.156,0.151
				c-0.001,0-0.001,0.001-0.002,0.001c-0.053-0.01-0.254,0.105-0.306,0.125c-0.179,0.07-0.359,0.137-0.541,0.202
				c-0.378,0.134-0.76,0.255-1.146,0.362c-0.74,0.206-1.493,0.359-2.253,0.469c-0.059,0.007-0.119,0.015-0.178,0.022
				c-0.41,0.045-0.758,0.137-1.061,0.439c-0.26,0.26-0.456,0.687-0.439,1.061c0.017,0.388,0.145,0.79,0.439,1.061
				c0.274,0.252,0.673,0.482,1.061,0.439c1.026-0.114,2.045-0.28,3.043-0.547c0.995-0.266,1.953-0.63,2.896-1.042
				c0.321-0.14,0.601-0.575,0.689-0.896C273.736,229.414,273.691,228.936,273.485,228.617z"/>
				<path style="fill:#C61E47;" d="M276.615,238.386c-0.182-0.311-0.539-0.608-0.896-0.689c-0.718-0.164-1.715,0.219-1.845,1.048
				c-0.311,1.976-0.622,3.951-0.933,5.927c-0.065,0.412-0.068,0.782,0.151,1.156c0.182,0.311,0.539,0.608,0.896,0.689
				c0.718,0.164,1.715-0.219,1.845-1.048c0.311-1.976,0.622-3.952,0.933-5.927C276.831,239.129,276.834,238.759,276.615,238.386z"/>
				<path style="fill:#C61E47;" d="M266.842,243.789c-1.433-1.503-2.866-3.006-4.299-4.509c-0.543-0.569-1.582-0.587-2.121,0
				c-0.56,0.611-0.579,1.514,0,2.121l4.299,4.509c0.543,0.569,1.582,0.587,2.121,0C267.402,245.3,267.421,244.396,266.842,243.789z" />
				<path style="fill:#C61E47;" d="M269.861,254.436c-0.608-0.558-1.517-0.582-2.121,0c-1.468,1.413-2.843,2.918-4.117,4.508
				c-0.258,0.322-0.439,0.632-0.439,1.061c0,0.368,0.163,0.807,0.439,1.061c0.286,0.262,0.661,0.457,1.061,0.439
				c0.372-0.017,0.817-0.135,1.061-0.439c1.274-1.59,2.649-3.095,4.117-4.508C270.427,256.012,270.45,254.977,269.861,254.436z"/>
				<path style="fill:#C61E47;" d="M283.41,252.939c-1.677-0.602-3.354-1.203-5.031-1.805c-0.74-0.265-1.675,0.299-1.845,1.048
				c-0.192,0.843,0.256,1.561,1.048,1.845c1.677,0.602,3.354,1.203,5.031,1.805c0.74,0.265,1.675-0.299,1.845-1.048
				C284.649,253.941,284.202,253.223,283.41,252.939z"/>
				<path style="fill:#C61E47;" d="M277.981,263.904c-0.277-1.652-0.712-3.272-1.299-4.84c-0.14-0.374-0.334-0.688-0.689-0.896
				c-0.322-0.188-0.795-0.268-1.156-0.151c-0.717,0.232-1.342,1.058-1.048,1.845c0.587,1.568,1.022,3.188,1.299,4.84
				c0.059,0.349,0.396,0.725,0.689,0.896c0.322,0.188,0.795,0.268,1.156,0.151c0.363-0.117,0.713-0.342,0.896-0.689
				C278.029,264.682,278.051,264.322,277.981,263.904z"/>
				<path style="fill:#C61E47;" d="M275.3,269.824c-0.206-0.32-0.514-0.602-0.896-0.689c-0.416-0.095-0.757-0.018-1.144,0.147
				c0.088-0.037,0.176-0.075,0.265-0.112c-0.986,0.414-2.018,0.693-3.074,0.856c-0.429,0.05-0.859,0.089-1.291,0.097
				c-0.784,0.015-1.537,0.679-1.5,1.5c0.036,0.8,0.659,1.516,1.5,1.5c1.952-0.036,3.815-0.48,5.603-1.246
				c0.321-0.137,0.601-0.577,0.689-0.896C275.55,270.621,275.506,270.143,275.3,269.824z"/>
				<path style="fill:#C61E47;" d="M287.041,265.381c-0.024-0.399-0.151-0.773-0.439-1.061c-0.26-0.26-0.687-0.456-1.061-0.439
				c-0.773,0.035-1.55,0.661-1.5,1.5c0.089,1.5,0.178,3,0.267,4.5c0.024,0.399,0.151,0.773,0.439,1.061
				c0.26,0.26,0.687,0.456,1.061,0.439c0.773-0.035,1.55-0.661,1.5-1.5C287.219,268.38,287.13,266.88,287.041,265.381z"/>
				<path style="fill:#C61E47;" d="M286.237,276.81c-0.457-0.02-0.913-0.053-1.368-0.102c-0.129-0.014-0.297-0.007-0.419-0.049
				c0.063,0.009,0.126,0.017,0.189,0.026c-0.07-0.01-0.139-0.02-0.209-0.03c-0.226-0.034-0.452-0.071-0.677-0.112
				c-0.918-0.167-1.823-0.396-2.711-0.68c-0.748-0.239-1.67,0.28-1.845,1.048c-0.187,0.82,0.247,1.589,1.048,1.845
				c1.936,0.62,3.962,0.964,5.992,1.054c0.785,0.035,1.535-0.715,1.5-1.5C287.699,277.468,287.078,276.847,286.237,276.81z"/>
				<path style="fill:#C61E47;" d="M275.328,279.016c-0.182-0.311-0.539-0.608-0.896-0.689c-0.384-0.087-0.815-0.069-1.156,0.151
				c-0.35,0.225-0.533,0.514-0.689,0.896c-0.661,1.617-1.321,3.235-1.982,4.852c-0.137,0.336-0.023,0.858,0.151,1.156
				c0.182,0.311,0.539,0.608,0.896,0.689c0.384,0.087,0.815,0.069,1.156-0.151c0.35-0.225,0.533-0.514,0.689-0.896
				c0.661-1.617,1.321-3.235,1.982-4.852C275.617,279.836,275.503,279.314,275.328,279.016z"/>
				<path style="fill:#C61E47;" d="M264.358,281.156c-0.429-0.892-0.842-1.792-1.236-2.7c-0.042-0.097-0.084-0.195-0.126-0.292
				c-0.033-0.078-0.206-0.53-0.056-0.13c-0.087-0.231-0.191-0.457-0.284-0.686c-0.187-0.458-0.369-0.919-0.547-1.38
				c-0.145-0.375-0.331-0.687-0.689-0.896c-0.321-0.188-0.795-0.268-1.156-0.151c-0.711,0.23-1.35,1.061-1.048,1.845
				c0.772,2.001,1.621,3.973,2.551,5.905c0.341,0.709,1.409,0.953,2.052,0.538C264.548,282.739,264.723,281.914,264.358,281.156z"/>
				<path style="fill:#C61E47;" d="M264.696,290.684c-0.474-0.735-1.289-0.893-2.052-0.538c-0.426,0.198-0.855,0.392-1.286,0.58
				c-0.092,0.04-0.185,0.08-0.277,0.12c-0.09,0.039-0.487,0.254-0.105,0.046c-0.188,0.103-0.407,0.169-0.605,0.25
				c-0.856,0.347-1.721,0.672-2.592,0.977c-0.739,0.258-1.309,1.038-1.048,1.845c0.236,0.731,1.052,1.325,1.845,1.048
				c1.897-0.664,3.761-1.426,5.583-2.274c0.322-0.15,0.598-0.566,0.689-0.896C264.946,291.48,264.901,291.002,264.696,290.684z"/>
				<path style="fill:#C61E47;" d="M277.427,291.027c-0.552-0.028-1.102-0.068-1.652-0.124c-0.268-0.027-0.536-0.061-0.804-0.093
				c-0.063-0.009-0.126-0.018-0.189-0.027c-0.126-0.019-0.252-0.038-0.378-0.058c-1.091-0.175-2.171-0.409-3.238-0.696
				c-0.757-0.203-1.665,0.255-1.845,1.048c-0.18,0.789,0.237,1.627,1.048,1.845c2.302,0.619,4.677,0.984,7.058,1.105
				c0.785,0.04,1.535-0.718,1.5-1.5C278.889,291.68,278.268,291.07,277.427,291.027z"/>
				<path style="fill:#C61E47;" d="M286.37,287.356l-3.541-4.181c-0.236-0.279-0.708-0.439-1.061-0.439
				c-0.368,0-0.807,0.163-1.061,0.439c-0.262,0.286-0.457,0.661-0.439,1.061c0.019,0.416,0.17,0.743,0.439,1.061
				c1.18,1.394,2.361,2.787,3.541,4.181c0.236,0.279,0.708,0.439,1.061,0.439c0.368,0,0.807-0.163,1.061-0.439
				c0.262-0.286,0.457-0.661,0.439-1.061C286.791,288.001,286.639,287.674,286.37,287.356z"/>
				<path style="fill:#C61E47;" d="M296.909,289.12c-0.423-0.656-1.348-0.995-2.052-0.538l-6.857,4.455
				c-0.657,0.427-0.991,1.349-0.538,2.052c0.423,0.656,1.348,0.995,2.052,0.538l6.857-4.455
				C297.028,290.745,297.362,289.823,296.909,289.12z"/>
				<path style="fill:#C61E47;" d="M298.692,281.138c-1.966-0.423-3.895-1.001-5.77-1.729c-0.341-0.133-0.852-0.026-1.156,0.151
				c-0.311,0.182-0.608,0.539-0.689,0.896c-0.196,0.86,0.263,1.54,1.048,1.845c1.875,0.728,3.804,1.306,5.77,1.729
				c0.765,0.165,1.658-0.227,1.845-1.048C299.911,282.228,299.512,281.314,298.692,281.138z"/>
				<path style="fill:#C61E47;" d="M305.244,290.538c-0.286-0.262-0.661-0.457-1.061-0.439c-0.398,0.018-0.773,0.153-1.061,0.439
				c-0.78,0.778-1.608,1.504-2.477,2.181c-0.073,0.055-0.146,0.111-0.22,0.166c-0.175,0.094-0.315,0.223-0.421,0.386
				c-0.133,0.145-0.222,0.315-0.268,0.51c-0.099,0.359-0.054,0.837,0.151,1.156c0.206,0.32,0.514,0.602,0.896,0.689
				c0.369,0.084,0.838,0.084,1.156-0.151c1.166-0.863,2.277-1.792,3.304-2.816c0.272-0.271,0.439-0.677,0.439-1.061
				C305.683,291.231,305.52,290.792,305.244,290.538z"/>
				<path style="fill:#C61E47;" d="M321.133,259.985c-0.237-0.733-1.051-1.321-1.845-1.048c-0.938,0.323-1.898,0.577-2.875,0.751
				c-0.228,0.041-0.46,0.086-0.69,0.109c-0.033,0.003-0.063,0.006-0.077,0.008c-0.13,0.015-0.26,0.028-0.391,0.041
				c-0.503,0.047-1.008,0.072-1.513,0.08c-0.784,0.012-1.537,0.682-1.5,1.5c0.036,0.803,0.659,1.513,1.5,1.5
				c2.151-0.032,4.309-0.394,6.344-1.095C320.826,261.575,321.393,260.79,321.133,259.985z"/>
				<path style="fill:#C61E47;" d="M326.327,251.843c-0.117-0.363-0.342-0.713-0.689-0.896c-0.331-0.175-0.793-0.303-1.156-0.151
				c-1.508,0.63-3.064,1.134-4.656,1.505c-0.765,0.178-1.29,1.096-1.048,1.845c0.258,0.799,1.026,1.239,1.845,1.048
				c1.591-0.371,3.148-0.874,4.656-1.505c0.378-0.158,0.681-0.321,0.896-0.689C326.364,252.677,326.444,252.203,326.327,251.843z"/>
				<path style="fill:#C61E47;" d="M324.532,239.273c-0.096-0.348-0.365-0.725-0.689-0.896c-0.665-0.351-1.697-0.22-2.052,0.538
				c-0.762,1.626-1.524,3.252-2.285,4.878c-0.175,0.373-0.264,0.745-0.151,1.156c0.096,0.348,0.365,0.725,0.689,0.896
				c0.665,0.351,1.697,0.22,2.052-0.538c0.762-1.626,1.524-3.252,2.285-4.878C324.556,240.057,324.645,239.684,324.532,239.273z"/>
				<path style="fill:#C61E47;" d="M314.117,248.055c-0.417-0.646-1.357-1.008-2.052-0.538c-0.975,0.658-2.01,1.218-3.088,1.687
				c-0.441,0.18-0.886,0.35-1.34,0.497c-0.745,0.242-1.305,1.05-1.048,1.845c0.241,0.745,1.046,1.307,1.845,1.048
				c1.816-0.59,3.561-1.418,5.144-2.487c0.326-0.22,0.582-0.508,0.689-0.896C314.368,248.852,314.323,248.374,314.117,248.055z"/>
				<path style="fill:#C61E47;" d="M313.562,232.421c-0.813,0.036-1.5,0.659-1.5,1.5v5.393c0,0.785,0.69,1.536,1.5,1.5
				c0.813-0.036,1.5-0.659,1.5-1.5v-5.393C315.062,233.137,314.372,232.385,313.562,232.421z"/>
				<path style="fill:#C61E47;" d="M305.175,240.644c-0.221-0.343-0.512-0.55-0.896-0.689c-0.269-0.098-0.534-0.205-0.799-0.313
				c-1.123-0.486-2.203-1.064-3.226-1.738c-0.657-0.433-1.688-0.152-2.052,0.538c-0.397,0.751-0.163,1.59,0.538,2.052
				c1.479,0.975,3.077,1.749,4.741,2.353c0.349,0.127,0.846,0.03,1.156-0.151c0.311-0.182,0.608-0.539,0.689-0.896
				C305.413,241.416,305.394,240.985,305.175,240.644z"/>
				<path style="fill:#C61E47;" d="M299.037,231.726c-0.206-0.32-0.514-0.602-0.896-0.689c-0.366-0.083-0.842-0.087-1.156,0.151
				c-1.498,1.139-2.996,2.277-4.494,3.416c-0.324,0.247-0.577,0.487-0.689,0.896c-0.099,0.359-0.054,0.837,0.151,1.156
				c0.206,0.32,0.514,0.602,0.896,0.689c0.366,0.083,0.842,0.087,1.156-0.151c1.498-1.139,2.996-2.277,4.494-3.416
				c0.324-0.247,0.577-0.487,0.689-0.896C299.287,232.523,299.242,232.045,299.037,231.726z"/>
				<path style="fill:#C61E47;" d="M307.134,220.379c-0.847,0.038-1.457,0.659-1.5,1.5c-0.11,2.155-0.219,4.31-0.329,6.464
				c-0.04,0.785,0.719,1.535,1.5,1.5c0.847-0.038,1.457-0.659,1.5-1.5c0.11-2.155,0.219-4.31,0.329-6.464
				C308.674,221.094,307.915,220.344,307.134,220.379z"/>
				<path style="fill:#C61E47;" d="M318.448,224.415c-1.006-0.23-1.988-0.549-2.943-0.941c-0.351-0.154-0.7-0.313-1.042-0.488
				c-0.359-0.184-0.759-0.261-1.156-0.151c-0.348,0.096-0.725,0.365-0.896,0.689c-0.362,0.685-0.208,1.671,0.538,2.052
				c1.49,0.762,3.07,1.358,4.701,1.731c0.763,0.175,1.66-0.234,1.845-1.048C319.67,225.497,319.266,224.603,318.448,224.415z"/>
				<path style="fill:#C61E47;" d="M312.427,210.189c-0.182-0.311-0.539-0.608-0.896-0.689c-0.384-0.087-0.815-0.069-1.156,0.151
				l-0.304,0.235c-0.186,0.187-0.315,0.408-0.386,0.662c-0.092,0.225-0.186,0.45-0.28,0.674c-0.432,1.018-0.881,2.029-1.351,3.031
				c-0.175,0.373-0.264,0.746-0.151,1.156c0.096,0.348,0.365,0.725,0.689,0.896c0.348,0.184,0.77,0.276,1.156,0.151
				c0.352-0.114,0.733-0.341,0.896-0.689c0.683-1.457,1.324-2.932,1.933-4.422C312.716,211.009,312.602,210.486,312.427,210.189z"/>
				<path style="fill:#C61E47;" d="M306.43,204.27c-0.477-0.74-1.285-0.886-2.052-0.538c-0.234,0.106-0.468,0.21-0.703,0.312
				c-0.02,0.009-0.148,0.063-0.227,0.097c-0.079,0.033-0.205,0.085-0.225,0.094c-0.458,0.188-0.918,0.368-1.382,0.54
				c-0.945,0.351-1.902,0.668-2.868,0.954c-0.752,0.223-1.3,1.064-1.048,1.845c0.246,0.761,1.039,1.286,1.845,1.048
				c2.093-0.62,4.134-1.398,6.122-2.299c0.322-0.146,0.599-0.57,0.689-0.896C306.68,205.066,306.635,204.588,306.43,204.27z"/>
				<path style="fill:#C61E47;" d="M300.191,194.365c0.164-0.388,0.268-0.73,0.151-1.156c-0.096-0.348-0.365-0.725-0.689-0.896
				c-0.348-0.184-0.77-0.276-1.156-0.151c-0.344,0.111-0.749,0.34-0.896,0.689c-0.793,1.878-1.407,3.801-1.762,5.81
				c-0.072,0.406-0.064,0.789,0.151,1.156c0.182,0.311,0.539,0.608,0.896,0.689c0.731,0.167,1.699-0.221,1.845-1.048
				c0.163-0.919,0.373-1.828,0.636-2.723c0.129-0.439,0.27-0.875,0.423-1.307c0.079-0.224,0.162-0.446,0.247-0.668
				c0.037-0.095,0.074-0.19,0.112-0.284C300.181,194.395,300.363,193.957,300.191,194.365z"/>
				<path style="fill:#C61E47;" d="M291.449,203.463c-2.456,0.073-4.913,0.146-7.37,0.219c-0.784,0.023-1.537,0.673-1.5,1.5
				c0.036,0.793,0.66,1.525,1.5,1.5c2.457-0.073,4.913-0.146,7.37-0.219c0.784-0.023,1.537-0.673,1.5-1.5
				C292.914,204.17,292.289,203.438,291.449,203.463z"/>
				<path style="fill:#C61E47;" d="M287.07,215.05c0.078-0.783-0.745-1.534-1.5-1.5c-0.879,0.039-1.417,0.661-1.5,1.5
				c-0.214,2.151-0.257,4.314-0.13,6.471c0.046,0.782,0.657,1.538,1.5,1.5c0.773-0.035,1.549-0.661,1.5-1.5
				C286.813,219.364,286.856,217.201,287.07,215.05z"/>
				<path style="fill:#C61E47;" d="M300.801,215.513c-0.274-0.847-1.011-1.176-1.845-1.048c-0.283,0.044-0.566,0.084-0.849,0.125
				c-0.05,0.007-0.1,0.013-0.15,0.019c-0.133,0.017-0.267,0.033-0.4,0.049c-0.556,0.066-1.114,0.123-1.672,0.171
				c-1.117,0.095-2.236,0.152-3.356,0.174c-0.784,0.016-1.537,0.679-1.5,1.5c0.036,0.799,0.66,1.517,1.5,1.5
				c2.422-0.048,4.831-0.276,7.225-0.645C300.531,217.238,301.03,216.222,300.801,215.513z"/>
				<path style="fill:#C61E47;" d="M299.36,225.56c-0.117-0.363-0.342-0.713-0.689-0.896c-0.382-0.202-0.733-0.211-1.156-0.151
				c-0.096,0.013-0.192,0.027-0.288,0.04c-0.045,0.006-0.267,0.035-0.312,0.041c-0.267,0.034-0.533,0.066-0.8,0.097
				c-0.556,0.064-1.113,0.122-1.671,0.172c-1.115,0.101-2.233,0.175-3.352,0.224c-0.783,0.034-1.537,0.665-1.5,1.5
				c0.035,0.783,0.66,1.537,1.5,1.5c2.419-0.106,4.824-0.344,7.221-0.681c0.345-0.048,0.73-0.404,0.896-0.689
				C299.397,226.394,299.477,225.92,299.36,225.56z"/>
				<path style="fill:#C61E47;" d="M335.672,254.92c-0.549-1.495-1.098-2.989-1.647-4.484c-0.137-0.374-0.336-0.69-0.689-0.896
				c-0.322-0.188-0.795-0.268-1.156-0.151c-0.721,0.233-1.337,1.057-1.048,1.845c0.549,1.495,1.098,2.989,1.647,4.484
				c0.137,0.374,0.336,0.69,0.689,0.896c0.321,0.188,0.795,0.268,1.156,0.151C335.345,256.532,335.961,255.708,335.672,254.92z"/>
				<path style="fill:#C61E47;" d="M332.617,263.16c-0.237-0.732-1.052-1.324-1.845-1.048l-5.906,2.054
				c-0.739,0.257-1.309,1.039-1.048,1.845c0.237,0.732,1.052,1.324,1.845,1.048c1.969-0.685,3.937-1.369,5.906-2.054
				C332.309,264.748,332.878,263.966,332.617,263.16z"/>
				<path style="fill:#C61E47;" d="M347.897,255.139c-1.18-1.346-2.481-2.58-3.888-3.687c-0.326-0.256-0.628-0.439-1.061-0.439
				c-0.368,0-0.807,0.163-1.061,0.439c-0.262,0.286-0.457,0.661-0.439,1.061c0.017,0.37,0.134,0.821,0.439,1.061
				c1.407,1.107,2.708,2.341,3.888,3.687c0.243,0.278,0.702,0.439,1.061,0.439c0.368,0,0.807-0.163,1.061-0.439
				c0.262-0.286,0.457-0.661,0.439-1.061C348.318,255.787,348.17,255.451,347.897,255.139z"/>
				<path style="fill:#C61E47;" d="M343.578,262.179c-0.286-0.262-0.661-0.457-1.061-0.439c-0.417,0.019-0.741,0.172-1.061,0.439
				c-1.436,1.201-2.873,2.402-4.309,3.602c-0.279,0.234-0.439,0.71-0.439,1.061c0,0.368,0.163,0.807,0.439,1.061
				c0.286,0.262,0.661,0.457,1.061,0.439c0.417-0.019,0.741-0.172,1.061-0.439c1.436-1.201,2.873-2.402,4.309-3.602
				c0.279-0.234,0.439-0.71,0.439-1.061C344.018,262.871,343.854,262.432,343.578,262.179z"/>
				<path style="fill:#C61E47;" d="M355.122,261.983c-0.459-0.137-0.915-0.286-1.366-0.448c-0.211-0.076-0.42-0.154-0.629-0.235
				c-0.089-0.035-0.179-0.07-0.268-0.105c-0.095-0.038-0.232-0.124-0.337-0.139c-0.019-0.008-0.037-0.016-0.056-0.024
				c-0.102-0.045-0.205-0.09-0.307-0.136c-0.204-0.092-0.406-0.187-0.608-0.285c-0.432-0.209-0.857-0.43-1.276-0.662
				c-0.687-0.379-1.668-0.19-2.052,0.538c-0.372,0.704-0.196,1.647,0.538,2.052c1.762,0.972,3.635,1.76,5.563,2.337
				c0.752,0.225,1.668-0.27,1.845-1.048C356.353,263.021,355.926,262.224,355.122,261.983z"/>
				<path style="fill:#C61E47;" d="M360.566,252.926c-0.057-0.348-0.398-0.726-0.689-0.896c-0.322-0.188-0.795-0.268-1.156-0.151
				c-0.363,0.117-0.713,0.342-0.896,0.689c-0.2,0.378-0.219,0.736-0.151,1.156c0.025,0.157,0.047,0.314,0.07,0.47
				c0.171,1.325,0.248,2.659,0.222,3.994c-0.015,0.785,0.701,1.536,1.5,1.5c0.826-0.037,1.484-0.659,1.5-1.5
				C360.999,256.424,360.849,254.668,360.566,252.926z"/>
				<path style="fill:#C61E47;" d="M365.385,264.467c-0.462-0.716-1.302-0.918-2.052-0.538c-1.793,0.909-3.585,1.818-5.378,2.726
				c-0.701,0.355-0.959,1.399-0.538,2.052c0.462,0.716,1.302,0.918,2.052,0.538c1.793-0.909,3.586-1.818,5.378-2.726
				C365.548,266.164,365.806,265.12,365.385,264.467z"/>
				<path style="fill:#C61E47;" d="M373.783,261.593c-0.643-1.077-1.249-2.176-1.81-3.297c-0.276-0.551-0.542-1.108-0.797-1.669
				c-0.123-0.271-0.244-0.543-0.362-0.816c-0.018-0.042-0.14-0.332-0.144-0.339c-0.05-0.12-0.1-0.241-0.149-0.361
				c-0.154-0.377-0.324-0.683-0.689-0.896c-0.322-0.188-0.795-0.268-1.156-0.151c-0.698,0.226-1.365,1.067-1.048,1.845
				c1.013,2.485,2.187,4.894,3.565,7.198c0.403,0.674,1.367,0.98,2.052,0.538C373.922,263.209,374.214,262.314,373.783,261.593z"/>
			</g>
			<g>
				<g>
					<path style="fill:#FFC933;" d="M369.994,365.031c-6.122,4.842-13.515,7.73-20.523,11.166
					c-14.805,7.258-28.195,17.105-42.846,24.662c-0.587,0.298-1.242,0.606-1.887,0.472c-0.433-0.087-0.789-0.366-1.136-0.635
					c-3.225-2.522-6.17-5.4-8.769-8.548c-4.871-5.853-8.596-12.668-10.849-19.936c-0.193-0.616-0.366-1.232-0.539-1.848
					l-0.058-0.154c1.068-0.395,2.137-0.789,3.206-1.194c11.571-4.38,22.881-9.424,33.874-15.113
					c-1.993,0.038-4.004-0.231-5.92-0.799c-0.404-0.106-0.809-0.241-1.203-0.385c-0.664-0.241-1.434-0.722-1.328-1.415
					c0.067-0.433,0.452-0.722,0.809-0.963c2.368-1.598,4.823-3.051,7.354-4.351c-15.931-5.93-31.67-12.389-47.168-19.377
					c-4.986-2.253-10.088-4.649-13.804-8.663c-3.648-3.927-5.689-9.809-3.735-14.776c18.001-4.351,36.685-5.814,55.138-4.37
					c6.113,0.481,12.196,1.28,18.222,2.397c-0.029-0.202-0.067-0.404-0.106-0.606c13.861,6.305,26.847,14.535,38.466,24.392
					c6.267,5.323,12.523,11.879,13.149,20.08C380.929,352.854,376.116,360.199,369.994,365.031z"/>
					<path style="fill:#F2AE03;" d="M345.438,345.288c0.953,0.279,1.877,0.664,2.753,1.146c0.375,0.202,0.78,0.472,0.876,0.895
					c0.202,0.837-0.847,1.377-1.685,1.579c-3.735,0.914-7.479,1.781-11.234,2.599c-3.581,0.77-7.239,1.492-10.868,1.04
					c-0.722-0.087-1.636-0.491-1.502-1.203c0.067-0.395,0.452-0.645,0.799-0.837c1.713-0.963,3.533-1.752,5.4-2.358
					c-1.155-0.828-2.455-1.463-3.831-1.848c-0.395-0.106-0.837-0.231-1.059-0.578c-0.27-0.424-0.067-1.02,0.318-1.338
					c0.385-0.327,0.905-0.443,1.396-0.529c6.064-1.174,12.427-0.751,18.29,1.194C345.216,345.086,345.351,345.182,345.438,345.288z" />
					<path style="fill:#F2AE03;" d="M285.958,365.483c-0.125-0.683-0.241-1.377-0.366-2.06c9.655-3.436,19.3-6.873,28.955-10.319
					c1.916,0.568,3.927,0.837,5.92,0.799c-10.993,5.689-22.304,10.733-33.874,15.113
					C286.382,367.842,286.17,366.658,285.958,365.483z"/>
				</g>
				<path style="fill:#FF9E10;" d="M359.448,342.178c-1.89-1.613-8.215-2.337-6.941-5.855c0.495-1.367,0.36-2.715-1.05-3.435
				c-1.33-0.68-2.728-0.182-3.927,0.515c-1.941,1.129-3.542,1.383-5.729,0.693c-1.9-0.6-3.649-1.609-5.428-2.487
				c-12.9-6.371-26.533-11.177-39.196-18.042c-7.127-3.863-13.88-8.409-19.69-14.092c-0.921-0.901-2.336,0.512-1.414,1.414
				c9.785,9.57,22.051,15.845,34.442,21.347c6.319,2.806,12.71,5.448,18.997,8.324c3.244,1.484,6.391,3.194,9.648,4.643
				c1.551,0.69,3.181,1.273,4.895,1.331c1.789,0.06,3.143-0.64,4.651-1.5c0.675-0.385,2.316-0.954,2.003,0.414
				c-0.187,0.818-0.514,1.417-0.379,2.291c0.252,1.631,1.583,2.913,2.97,3.685c1.485,0.826,3.285,1.076,4.656,2.111
				c0.536,0.405,0.861,0.823,0.421,1.421c-0.293,0.398-0.931,0.732-1.323,1.039c-0.945,0.742-1.889,1.484-2.834,2.227
				c-0.673,0.529-0.117,1.771,0.707,1.707c0.93-0.073,1.213,1.025,0.881,1.741c-0.515,1.111-1.943,1.655-3.019,2.029
				c-2.206,0.767-4.539,1.059-6.84,1.385c-2.342,0.332-4.646,0.746-6.887,1.523c-2.264,0.785-4.44,1.807-6.588,2.864
				c-9.246,4.549-18.456,9.172-27.683,13.759c-5.258,2.614-10.517,5.228-15.775,7.842c-1.153,0.573-0.141,2.299,1.009,1.727
				c10.443-5.191,20.886-10.382,31.329-15.574c5.136-2.553,10.221-5.303,15.478-7.603c2.528-1.106,5.13-1.901,7.854-2.343
				c2.597-0.421,5.245-0.638,7.779-1.381c2.146-0.629,4.929-1.72,5.446-4.193c0.232-1.111-0.2-2.318-1.012-3.064l1.191-0.936
				c0.73-0.574,1.647-1.117,2.232-1.842C361.353,344.585,360.537,343.108,359.448,342.178z"/>
			</g>
		</g>
		<g>
			<g>
				<path style="fill:#1F1E42;" d="M252.364,143.537c0.019,0.279-0.144,0.539-0.327,0.751c-1.559,1.829-5.111,1.993-5.41,4.38
				c-0.048,0.385,0,0.818-0.26,1.107c-0.424,0.462-1.165,0.144-1.762-0.067c-2.445-0.857-4.948,0.943-6.921,2.618
				c-11.609,9.809-23.67,19.079-36.127,27.781c-1.829,1.271-3.725,2.561-5.901,3.071c-2.378,0.549-4.871,0.106-7.248-0.501
				c-3.282-0.847-6.478-1.993-9.665-3.128l-0.279-0.067c0.857-3.735,1.608-7.479,2.233-11.243c0.029-0.424,0.048-0.857,0.048-1.28
				c0.01-1.839-0.308-3.745,0.193-5.554c0.52-1.867,1.848-3.109,3.581-3.87c1.896-0.837,3.822-1.588,5.747-2.358
				c7.239-2.926,14.497-5.843,21.36-9.597c5.853-3.533,11.965-6.642,18.27-9.28c0.337-0.135,0.703-0.298,0.895-0.606
				c0.327-0.51,0.077-1.194,0.144-1.8c0.116-0.991,1.145-1.675,2.137-1.752c1.001-0.077,1.964,0.308,2.888,0.674
				c0.058-1.242,0.26-2.484,0.606-3.677c0.144-0.481,0.375-1.03,0.866-1.174c0.539-0.164,1.068,0.27,1.473,0.664
				c0.375,0.366,0.751,0.732,1.117,1.117c3.08,3.061,6.064,6.238,8.923,9.52c1.03,1.165,2.041,2.358,3.042,3.552
				C252.162,143.027,252.345,143.267,252.364,143.537z"/>
				<path style="fill:#FFCC71;" d="M259.362,114.687c1.434-1.03,3.677-0.462,4.909,0.886c1.319,1.425,1.771,3.427,2.137,5.333
				c0.674,3.475,1.203,7.066,0.558,10.55c-0.125,0.655-0.308,1.338-0.751,1.848c-0.578,0.674-1.502,0.934-2.368,1.117
				c-0.048,0.01-0.096,0.019-0.144,0.029c-2.455,0.52-4.957,0.78-7.46,0.78c-1.55-0.01-3.533-0.472-3.735-2.012
				c-0.067-0.452,0.058-0.905,0.212-1.328c0.606-1.646,1.79-3.071,3.292-3.976c-1.338,0.058-2.686-0.048-3.995-0.318
				c-0.452-0.096-0.934-0.231-1.242-0.587c-0.655-0.78,0.019-2.012,0.886-2.541c0.876-0.529,1.954-0.751,2.666-1.482
				c-1.049-0.327-2.137-0.683-2.974-1.405c-0.837-0.722-1.357-1.925-0.963-2.955c0.279-0.712,0.934-1.203,1.617-1.588
				c0.096-0.058,0.193-0.116,0.289-0.164C254.482,115.717,256.898,114.976,259.362,114.687z"/>
				<path style="fill:#EFA42B;" d="M256.244,135.229c2.503,0,5.006-0.26,7.46-0.78c-4.11,3.331-9.472,5.092-14.757,4.813
				c-2.859-3.282-5.843-6.459-8.923-9.52c2.195-5.622,4.765-11.089,7.72-16.355c0.799-1.425,1.819-2.984,3.427-3.282
				c0.347-0.067,0.722-0.058,1.03,0.125c0.655,0.404,0.606,1.348,0.481,2.108c-0.25,1.492-0.501,2.984-0.751,4.476l0.077,0.221
				c-0.683,0.385-1.338,0.876-1.617,1.588c-0.395,1.03,0.125,2.233,0.963,2.955c0.837,0.722,1.925,1.078,2.974,1.405
				c-0.712,0.732-1.79,0.953-2.666,1.482c-0.866,0.529-1.54,1.762-0.886,2.541c0.308,0.356,0.789,0.491,1.242,0.587
				c1.309,0.27,2.657,0.375,3.995,0.318c-1.502,0.905-2.686,2.33-3.292,3.976c-0.154,0.424-0.279,0.876-0.212,1.328
				C252.711,134.758,254.694,135.22,256.244,135.229z"/>
			</g>
			<g>
				<path style="fill:#FFC933;" d="M253.03,135.429c-1.819,5.383-2.324,11.129-1.194,16.701l2.602,12.813l-28.335,13.67
				l-8.416-10.008c-1.033-1.238-2.165-2.384-3.384-3.434c-3.008-2.618-6.516-4.629-10.303-5.981
				c-9.14-3.257-17.054-9.972-21.601-19.398c-9.398-19.48-0.805-42.973,19.213-51.679c5.19-2.254,10.656-3.253,16.037-3.116
				c13.273,0.328,26.015,7.563,32.71,19.835C255.727,114.664,256.328,125.709,253.03,135.429z"/>
				<g>

					<rect x="222.221" y="171.558" transform="matrix(0.9007 -0.4345 0.4345 0.9007 -51.3185 121.9732)" style="fill:#C1D1D1;" width="37.772" height="3.333"/>

					<rect x="226.701" y="174.697" transform="matrix(0.9007 -0.4345 0.4345 0.9007 -52.4369 122.7283)" style="fill:#A7B3B7;" width="30.996" height="2.703"/>

					<rect x="227.405" y="177.131" transform="matrix(0.9007 -0.4345 0.4345 0.9007 -53.3781 123.4804)" style="fill:#C1D1D1;" width="31.938" height="2.703"/>

					<rect x="229.066" y="179.599" transform="matrix(0.9007 -0.4345 0.4345 0.9007 -54.332 124.2428)" style="fill:#A7B3B7;" width="30.996" height="2.703"/>

					<rect x="229.769" y="182.033" transform="matrix(0.9007 -0.4345 0.4345 0.9007 -55.2732 124.995)" style="fill:#C1D1D1;" width="31.938" height="2.703"/>
					<polygon style="fill:#A7B3B7;" points="233.56,190.761 241.808,193.424 257,186.095 258.621,178.67 				"/>
				</g>
				<path style="fill:#F2AE03;" d="M253.03,135.429c-1.819,5.383-2.324,11.129-1.194,16.701l2.602,12.813l-28.335,13.67
				l-8.416-10.008c-1.033-1.238-2.165-2.384-3.384-3.434c0.188-0.331,0.365-0.666,0.541-1c6.406-12.172,10.199-25.738,11.057-39.463
				c0.456-7.361,0.127-14.833-1.295-22.08c-1.184-6.071-3.22-12.524-6.956-17.63c13.273,0.328,26.015,7.563,32.71,19.835
				C255.727,114.664,256.328,125.709,253.03,135.429z"/>
				<path style="fill:#FFF6CC;" d="M203.239,115.403c-0.523,1.998-1.404,3.883-2.009,5.857c-0.575,1.889-0.897,3.843-0.972,5.811
				c-0.156,3.681,1.184,7.825-1.05,11.129c-2.11,3.119-5.884,2.919-8.527,0.633c-2.123-1.834-3.577-4.462-4.511-7.155
				c-0.404-1.114-0.718-2.263-0.956-3.421c-0.878-4.331-0.966-9.052,0.335-13.313c1.046-3.443,3.141-6.76,6.217-8.725
				c2.581-1.646,6.166-2.316,8.882-0.581C203.904,107.719,204.126,112.019,203.239,115.403z"/>
				<path style="fill:#FFFFFF;" d="M241.168,133.008c0.423,1.66-0.294,3.223-1.548,4.106c-0.714-2.375-1.432-4.756-2.134-7.137
				c-0.252-0.841-1.618-0.606-1.366,0.251c0.741,2.493,1.49,4.99,2.237,7.48c-0.386,0.109-0.8,0.162-1.231,0.147
				c-0.822-0.027-1.601-0.268-2.287-0.684c0.027-0.36,0.038-0.719,0.018-1.08c-0.066-1.031-0.334-2.065-0.808-2.985
				c-0.39-0.744-1.023-1.849-1.992-1.813c-2.27,0.086-0.437,4.348,0.189,5.263c0.319,0.47,0.692,0.876,1.112,1.22
				c-0.15,0.758-0.421,1.49-0.859,2.132c-1.287,1.884-3.167,1.851-4.865,1.045c0.266-1.892-0.005-3.842-0.435-5.692
				c-0.541-2.335-1.284-4.673-2.618-6.672c-1-1.498-3.171-4.002-5.257-3.296c-2.199,0.745-1.045,4.079-0.591,5.593
				c0.747,2.506,1.927,4.856,3.486,6.955c1.075,1.446,2.337,2.832,3.863,3.822c-0.306,1.218-0.899,2.337-1.914,3.204
				c-1.338,1.139-2.991,1.289-4.512,0.821c0.193-2.266-0.429-4.562-2.144-6.184c-0.698-0.665-1.713-1.331-2.712-0.941
				c-0.815,0.324-1.165,1.147-1.155,1.982c0.011,2.067,1.726,4.168,3.295,5.344c0.375,0.281,0.781,0.517,1.209,0.719
				c-0.349,1.64-1.203,3.176-2.453,4.288c-0.449,0.394-0.969,0.737-1.526,1.006c-1.801-2.151-3.629-4.281-5.474-6.396
				c-0.586-0.672-1.633,0.241-1.046,0.913c1.725,1.98,3.432,3.968,5.117,5.975c-1.709,0.401-3.555,0.12-4.843-1.192
				c-0.621-0.633-1.67,0.274-1.037,0.916c1.869,1.895,4.503,2.196,6.848,1.419c5.982,7.145,11.731,14.479,17.242,21.99
				c0.527,0.724,1.57-0.195,1.046-0.913c-5.423-7.392-11.078-14.61-16.952-21.644c0.894-0.478,1.707-1.109,2.363-1.872
				c0.962-1.119,1.653-2.531,2-4.016c1.218,0.321,2.503,0.333,3.71-0.072c2.077-0.694,3.54-2.563,4.177-4.612
				c0.003-0.009,0.003-0.025,0.013-0.037c1.838,0.824,3.94,0.773,5.466-0.68c0.893-0.847,1.483-1.94,1.804-3.112
				c1.301,0.62,2.792,0.772,4.137,0.431c2.914,9.634,5.907,19.254,8.974,28.837c0.267,0.842,1.639,0.604,1.369-0.244
				c-3.103-9.674-6.119-19.375-9.054-29.099c1.023-0.563,1.877-1.476,2.348-2.766c0.349-0.954,0.407-1.984,0.154-2.971
				C242.32,131.898,240.951,132.142,241.168,133.008z M218.072,143.149c0.174,0.632,0.252,1.288,0.243,1.94
				c-0.683-0.395-1.3-0.906-1.8-1.512c-0.452-0.537-0.828-1.141-1.133-1.773c-0.196-0.406-0.596-1.33-0.267-1.767
				c0.487-0.651,1.535,0.531,1.849,0.911C217.485,141.583,217.85,142.355,218.072,143.149z M226.316,140.15
				c-0.23-0.174-0.457-0.357-0.672-0.546c-2.323-2.1-4.068-4.902-5.159-7.819c-0.496-1.332-1.093-3.017-1.051-4.462
				c0.05-2.004,2.908,0.646,3.375,1.199c1.883,2.242,2.743,5.302,3.274,8.128C226.291,137.766,226.404,138.975,226.316,140.15z
				 M233.051,134.259c0.207,0.509,0.339,1.054,0.396,1.604c-0.31-0.436-0.567-0.92-0.737-1.432
				c-0.137-0.381-0.306-0.939-0.327-1.445C232.647,133.406,233.006,134.149,233.051,134.259z"/>
			</g>
			<path style="fill:#FFCC71;" d="M181.372,163.838c-0.703,0.597-1.405,1.213-2.108,1.819l-0.539,0.25
			c-2.358-5.006-4.775-9.982-7.248-14.93c3.013-3.677,6.026-7.364,9.039-11.031c0.481-0.587,0.963-1.174,1.444-1.762
			c1.434-1.752,2.907-3.542,4.852-4.688c1.877-1.097,4.062-1.531,6.199-1.944c2.262-0.443,4.553-0.876,6.854-0.722
			c0.934,0.067,2.118,0.568,1.964,1.482c-0.067,0.462-0.472,0.78-0.857,1.04c-2.676,1.858-5.708,3.215-8.875,3.985l0.096,0.645
			c1.232-0.212,2.474-0.337,3.716-0.385c3.359-0.125,7.143,0.549,9.058,3.302c0.27,0.375,0.491,0.876,0.27,1.28
			c-0.106,0.212-0.318,0.347-0.52,0.481c-0.77,0.481-1.55,0.972-2.32,1.463v0.241c1.887,0.01,3.745,0.318,5.439,1.126
			c0.664,0.327,1.348,0.857,1.454,1.531c0.029,0.125,0.029,0.25,0.01,0.385c-0.096,0.597-0.626,1.001-1.126,1.348
			c-1.28,0.895-2.561,1.79-3.841,2.686l-0.01,0.356c1.675,0.058,3.35,0.25,4.871,0.924c0.26,0.125,0.539,0.27,0.664,0.539
			c0.279,0.568-0.308,1.174-0.837,1.521c-3.234,2.127-7.017,3.408-10.868,3.696l-0.029-0.029c-1.723,1.665-3.831,2.936-6.084,3.754
			c-3.138,1.126-6.555,1.415-9.876,1.068l-0.058-0.067C181.863,163.415,181.613,163.626,181.372,163.838z"/>
			<g>
				<path style="fill:#FFCC71;" d="M174.904,89.332c-0.202,2.474-0.626,4.929-1.068,7.374c-0.549,2.984-1.117,5.959-1.723,8.933
				c-0.953,4.736-2.012,9.52-4.197,13.833c-0.481,0.963-1.049,1.925-1.964,2.493c-1.271,0.799-2.897,0.635-4.361,0.289
				c-0.019,0-0.029-0.01-0.048-0.01c-0.424-0.106-0.847-0.221-1.261-0.356l-0.27,0.818c-4.649-0.231-9.26-1.242-13.602-2.926
				c-5.573-2.156-10.704-5.419-14.978-9.588c0.039-0.144,0.087-0.279,0.144-0.424c0.385-1.126,0.789-2.252,1.194-3.369
				c1.386-3.85,2.82-7.691,4.313-11.503c-1.559-0.76-2.724-2.291-3.042-4.004c-0.308-1.704,0.241-3.552,1.444-4.813
				c0.212-0.221,0.539-0.414,0.828-0.462l-0.019-0.116c12.716-2.329,25.711-3.148,38.61-2.455
				C175.067,85.136,175.067,87.244,174.904,89.332z"/>
				<path style="fill:#EFA42B;" d="M160.282,121.888l-0.27,0.818c-4.649-0.231-9.26-1.242-13.602-2.926
				c-0.039-2.07,0.077-4.139,0.356-6.19C150.925,116.911,155.237,120.309,160.282,121.888z"/>
			</g>
			<g>
				<path style="fill:#1D1C3A;" d="M174.952,71.409c-5.795,0.173-11.599,0.395-17.394,0.693c-3.408,0.173-6.844,0.366-10.261,0.693
				c-6.074,0.578-12.09,1.559-17.818,3.542c-0.279-3.1,0.703-6.17,1.723-9.116c0.433-1.242,0.886-2.503,1.685-3.542
				c0.01,0,0.01-0.01,0.01-0.01c0.703-0.914,1.656-1.608,2.657-2.195c3.552-2.07,7.893-2.763,11.917-1.906
				c2.079,0.452,4.053,1.28,6.132,1.742c3.254,0.712,6.642,0.462,9.963,0.76c3.321,0.308,6.815,1.319,8.923,3.899
				C173.748,67.529,174.374,69.484,174.952,71.409z"/>
				<path style="fill:#423D66;" d="M174.904,83.047c-12.899-0.693-25.894,0.125-38.61,2.455c-2.214,0.395-4.418,0.847-6.613,1.348
				c-0.26,0.058-0.52,0.116-0.78,0.173l-0.125,0.01c-0.077-1.174-0.144-2.339-0.221-3.514c-0.01-0.173-0.019-0.347-0.096-0.501
				c-0.26-0.539-1.04-0.52-1.521-0.876c-0.385-0.289-0.529-0.866-0.337-1.309c0.202-0.433,0.732-0.703,1.203-0.597
				c-0.539-0.212-1.107-0.433-1.492-0.866c-0.395-0.433-0.539-1.146-0.173-1.598c0.193-0.231,0.481-0.356,0.76-0.472
				c0.857-0.347,1.713-0.674,2.58-0.963c5.728-1.983,11.744-2.965,17.818-3.542c3.417-0.327,6.854-0.52,10.261-0.693
				c5.795-0.298,11.599-0.52,17.394-0.693c0.067-0.01,0.135-0.01,0.202-0.01c0.347-0.01,0.693-0.019,1.011,0.116
				c1.579,0.674,0.337,3.562,1.713,4.592c0.443,0.327,1.078,0.375,1.454,0.789c0.395,0.443,0.327,1.165,0,1.665
				c-0.327,0.491-0.857,0.818-1.367,1.126c1.3,0.087,2.147,1.964,1.203,2.859c-0.462,0.433-1.136,0.539-1.762,0.626v0.039
				C176.578,83.153,175.741,83.095,174.904,83.047z"/>
				<path style="fill:#1F1E42;" d="M142.127,65.662c2.493,1.675,4.351,4.255,5.169,7.133c-6.074,0.578-12.09,1.559-17.818,3.542
				c-0.279-3.1,0.703-6.17,1.723-9.116c0.433-1.242,0.886-2.503,1.685-3.542C136.072,63.14,139.451,63.862,142.127,65.662z"/>
				<path style="fill:#FFC933;" d="M136.293,85.501l0.019,0.116c-0.289,0.048-0.616,0.241-0.828,0.462
				c-1.203,1.261-1.752,3.109-1.444,4.813c0.318,1.713,1.482,3.244,3.042,4.004c-1.492,3.812-2.926,7.653-4.312,11.503
				c-1.694-6.392-2.724-12.957-3.09-19.551C131.875,86.348,134.079,85.896,136.293,85.501z"/>
			</g>
			<g>
				<path style="fill:#1F1E42;" d="M174.898,85.241c-2.401-1.692-5.19-1.084-7.698-0.022c-1.165,0.493-2.337,1.154-3.613,1.318
				c-0.613,0.079-1.223,0.029-1.826-0.088c-4.89-2.118-12.055-5.363-15.112,0.662c-2.867,5.65,2.121,11.448,7.812,12.049
				c3.154,0.333,5.635-1.504,8.589-2.131c1.409-0.299,2.74,0.144,4.1,0.476c1.619,0.395,3.27,0.659,4.915,0.244
				c2.599-0.656,4.919-2.704,5.558-5.355C178.266,89.733,177.13,86.814,174.898,85.241z"/>
				<path style="fill:#DB8B16;" d="M138.106,87.189c0.268-0.15,0.654-0.2,0.9,0.018c0.463,0.408,1.147-0.27,0.681-0.681
				c-0.774-0.682-1.916-0.477-2.587,0.251c-0.715,0.775-1.004,1.92-1.107,2.942c-0.056,0.558-0.03,1.115,0.054,1.669
				c0.07,0.465,0.192,0.951,0.472,1.338c0.613,0.849,1.785,0.887,2.535,0.187c0.781-0.729,0.756-1.969,0.117-2.766
				c-0.163-0.203-0.511-0.17-0.681,0c-0.201,0.201-0.163,0.477,0,0.681c0.4,0.499,0.195,1.362-0.414,1.58
				c-0.858,0.308-1.066-0.878-1.123-1.465c-0.091-0.941,0.029-1.922,0.406-2.794C137.518,87.782,137.746,87.39,138.106,87.189z"/>
				<path style="fill:#DB8B16;" d="M167.236,103.225c-0.658-1.891-1.317-3.781-1.975-5.672c-0.202-0.581-1.133-0.331-0.928,0.256
				c0.55,1.58,1.1,3.16,1.65,4.739c0.132,0.379,0.229,0.805,0.406,1.165c0.007,0.079,0.017,0.124,0.028,0.146
				c-0.07,0.042-0.139,0.085-0.208,0.129c-0.148,0.093-0.293,0.189-0.438,0.287c-0.302,0.206-0.596,0.422-0.883,0.647
				c-0.157,0.123-0.313,0.248-0.465,0.376c-0.023,0.019-0.143,0.128-0.23,0.214c-0.1-0.014-0.202,0-0.292,0.059
				c-0.282,0.184-0.356,0.472-0.212,0.772c0.072,0.151,0.256,0.236,0.416,0.238c0.428,0.006,0.693-0.346,0.999-0.603
				c0.35-0.295,0.715-0.572,1.092-0.831c0.327-0.225,0.767-0.408,1.034-0.703C167.566,104.075,167.379,103.634,167.236,103.225z"/>
				<path style="fill:#DB8B16;" d="M164.17,110.202c-3.027,0.272-6.086-0.22-8.858-1.475c-0.56-0.253-1.05,0.576-0.486,0.831
				c2.927,1.324,6.141,1.894,9.344,1.606C164.783,111.11,164.788,110.146,164.17,110.202z"/>
				<circle style="fill:#FFFFFF;" cx="155.157" cy="91.684" r="1.928"/>
				<circle style="fill:#FFFFFF;" cx="170.734" cy="91.881" r="1.928"/>
			</g>
			<g>
				<g>
					<path style="fill:#423D66;" d="M181.37,163.84c-0.71,5.25-1.72,10.46-2.9,15.64c-0.84,3.68-1.75,7.33-2.7,10.99
					c-0.25,0.95-0.5,1.9-0.75,2.86c-0.68,2.59-1.38,5.17-2.06,7.76c-0.26,0.96-0.51,1.92-0.77,2.89c-0.9,3.44-1.78,6.89-2.61,10.36
					c-0.24,1.01-0.47,2.03-0.7,3.05c-0.33,1.46-0.64,2.92-0.94,4.38c-0.11,0.58-0.22,1.19,0.04,1.71c0.46,0.93,1.75,0.99,2.64,1.53
					c1.41,0.84,1.67,2.85,1.07,4.37c-0.16,0.41-0.37,0.79-0.6,1.15c-0.64,1-1.51,1.86-2.32,2.74c-0.3,0.33-0.6,0.67-0.71,1.1
					c-0.13,0.47,0,0.96,0.11,1.43c1.09,4.61,1.39,9.41,0.9,14.13c-0.1,1.01-0.24,2.02-0.43,3.02c-0.17,1-0.38,1.99-0.63,2.97
					c-0.04,0.01-0.09,0.01-0.13,0.02c-27.91,4.53-57.51,4.39-83.11-7.45c-0.29-0.13-0.57-0.26-0.85-0.4l-0.1-0.4
					c0.24-2.72,0.62-5.42,1.16-8.08c0.2-1.03,0.43-2.04,0.68-3.06c0.72-2.93,1.62-5.82,2.69-8.64c0.39-1.06,0.82-2.13,1.1-3.22
					c0.27-0.97,0.43-1.96,0.36-2.96c-0.01-0.12-0.02-0.25-0.04-0.38c-0.31-2.46-1.98-5.17-0.54-7.19c1.06-1.46,3.42-1.79,4.04-3.48
					c0.26-0.69,0.16-1.46,0.06-2.19c-0.01-0.1-0.03-0.19-0.04-0.29c-0.15-1.05-0.29-2.1-0.42-3.15c-0.4-3.06-0.75-6.14-1.04-9.22
					c-0.1-1.01-0.19-2.02-0.27-3.03c-0.29-3.43-0.52-6.87-0.68-10.31c-0.05-0.99-0.09-1.97-0.12-2.96
					c-0.18-5.05-0.23-10.12-0.13-15.18c0.08-4.78,0.23-10.91-0.97-15.54c-0.43-1.38-0.65-2.81-0.48-4.25
					c0.31-2.48,1.74-4.67,3.32-6.58c5.37-6.44,12.75-10.58,20.25-14.51c0.98-0.52,1.97-1.03,2.95-1.55c1.71-0.89,3.41-1.78,5.08-2.7
					c0.49-0.27,1-0.58,1.21-1.1c0.29-0.7-0.13-1.47-0.27-2.22c-0.27-1.36,0.45-2.86,1.7-3.44c1.25-0.58,2.92-0.13,3.65,1.04
					c-0.09-1.1-0.19-2.24,0.13-3.31c0.31-1.06,1.14-2.05,2.25-2.21c0.04,0,0.07-0.01,0.11-0.01c1.03-0.08,2.1,0.79,2.02,1.8
					c-0.06,0.14-0.11,0.28-0.15,0.42c4.28,4.17,9.41,7.43,14.98,9.59c4.34,1.68,8.95,2.69,13.6,2.93l0.27-0.82
					c0.42,0.13,0.84,0.25,1.26,0.35c-0.16,0.97-0.67,1.86-1.42,2.5c-0.23,0.21-0.51,0.39-0.64,0.68c-0.31,0.67,0.3,1.38,0.56,2.07
					c0.58,1.51-0.54,3.17-0.4,4.77c3.33,1.16,6.69,2.28,10.06,3.35c1.17,0.38,2.34,0.74,3.51,1.1c1.77,0.55,3.54,1.09,5.31,1.61
					l2,1.63c-3.02,3.66-6.03,7.35-9.04,11.03c2.47,4.95,4.89,9.92,7.25,14.93l0.53-0.25C179.97,165.05,180.67,164.43,181.37,163.84z
					"/>
					<path style="fill:#1F1E42;" d="M170.851,171.067l0.135,0.289c-2.127,4.736-6.055,8.404-10.03,11.744
					c-9.27,7.768-19.387,14.516-30.13,20.07c-1.28,0.664-2.695,1.328-4.11,1.04c-1.569-0.308-2.666-1.685-3.61-2.974
					c-9.328-12.668-17.991-25.827-25.942-39.399c7.287,9.992,16.682,18.453,26.491,26.077c0.991,0.77,2.05,1.559,3.302,1.723
					c1.223,0.154,2.426-0.318,3.562-0.789C144.11,183.264,157.567,177.334,170.851,171.067z"/>
					<path style="fill:#1F1E42;" d="M170.524,148.629l0.048,0.539c-12.937,3.61-25.73,7.739-38.331,12.379
					c-5.063-9.029-11.176-17.481-18.164-25.124c-0.048-0.212-0.096-0.424-0.144-0.635c8.115,7.325,18.53,12.052,29.379,13.361
					c4.033,0.481,8.096,0.501,12.148,0.404C160.493,149.428,165.518,149.12,170.524,148.629z"/>
					<path style="fill:#1F1E42;" d="M163.015,220.237c0.443,2.031-0.972,4.004-2.532,5.381c-3.658,3.225-8.413,4.842-12.918,6.719
					c-0.414,0.173-0.876,0.395-1.04,0.818c-0.375,0.953,0.963,1.617,1.973,1.752c4.322,0.587,8.683,0.876,13.034,0.876
					c-1.271,3.138-4.794,4.659-8.057,5.573c-7.556,2.098-15.556,2.589-23.305,1.425c-2.147-0.318-4.717-1.213-5.025-3.35
					c-0.26-1.79,1.271-3.302,2.743-4.341c9.029-6.344,20.898-7.585,30.12-13.544C159.646,221.007,161.321,220.564,163.015,220.237z" />
					<path style="fill:#1F1E42;" d="M153.745,128.125c0.568,0.125,1.309,0.568,1.04,1.078c-0.106,0.193-0.318,0.289-0.52,0.375
					c-0.741,0.308-1.482,0.626-2.224,0.934c-0.173,0.067-0.356,0.154-0.443,0.318c-0.106,0.183-0.058,0.414,0.019,0.606
					c0.26,0.664,0.799,1.174,1.174,1.781c0.375,0.597,0.558,1.444,0.096,1.983c-0.404,0.481-1.107,0.529-1.733,0.52
					c-4.11-0.058-8.201-0.76-12.1-2.06c-4.38-1.482-8.769-3.995-10.723-8.192c1.598,0.077,3.061,0.876,4.543,1.511
					c1.473,0.635,3.157,1.117,4.659,0.549c-0.558-1.454-2.147-2.156-3.388-3.08c-1.107-0.818-2.012-1.896-2.628-3.119
					c-0.183-0.366-0.347-0.789-0.212-1.184c0.289-0.924,1.694-0.732,2.445-0.116c2.358,2.426,5.439,4.11,8.635,5.265
					C146.054,126.633,149.924,127.326,153.745,128.125z"/>
				</g>
				<path style="fill:#EAF8F9;" d="M169.07,249.93c-0.1,1.01-0.24,2.02-0.43,3.02c-3.63,0.5-7.34,0.52-11.03,0.2
				c-6.64-0.58-13.13-2.18-19.61-3.71c-6.78-1.6-13.52-2.82-20.47-3.38c-10.96-0.89-22.68-1.29-32.55-6.45
				c0.2-1.03,0.43-2.04,0.68-3.06c4.56,2.5,9.62,3.94,14.77,4.82c6.61,1.13,13.34,1.3,20.01,1.94c6.54,0.63,12.9,1.95,19.29,3.46
				C149.14,249,159.37,251.45,169.07,249.93z"/>
				<path style="fill:#EAF8F9;" d="M171.09,230.53c-0.64,1-1.51,1.86-2.32,2.74c-5.43-0.47-10.95,0.44-16.38,0.69
				c-11.74,0.55-22.83-3.33-34.02-6.26c-5.63-1.48-11.36-2.68-17.2-2.82c-3.9-0.09-7.84,0.16-11.72-0.19
				c0.27-0.97,0.43-1.96,0.36-2.96c4.79,0.45,9.69-0.08,14.47,0.31c11.58,0.95,22.42,5.38,33.72,7.69c5.89,1.2,11.7,1.48,17.69,1.02
				C160.83,230.34,165.99,229.79,171.09,230.53z"/>
				<path style="fill:#EAF8F9;" d="M169.58,214.34c-0.24,1.01-0.47,2.03-0.7,3.05c-3.15,0.18-6.29,0.5-9.43,0.75
				c-6.16,0.49-12.24,0.41-18.37-0.39c-6.18-0.8-12.28-2.11-18.38-3.39c-9.8-2.06-19.61-4.11-29.41-6.16
				c-0.15-1.05-0.29-2.1-0.42-3.15c4.81,1,9.61,2.01,14.42,3.02c6.05,1.27,12.09,2.54,18.14,3.8c5.98,1.26,11.98,2.52,18.06,3.17
				c6.15,0.66,12.23,0.43,18.37-0.1C164.43,214.71,167,214.47,169.58,214.34z"/>
				<path style="fill:#EAF8F9;" d="M172.96,201.09c-0.26,0.96-0.51,1.92-0.77,2.89c-4.5-0.16-9.23,1.72-13.55,2.41
				c-6.06,0.97-12.09-0.08-17.99-1.51c-6.15-1.49-12.26-3.06-18.46-4.33c-10.04-2.07-20.17-3.64-30.36-4.72
				c-0.1-1.01-0.19-2.02-0.27-3.03c4.99,0.52,9.96,1.16,14.92,1.91c6.33,0.95,12.63,2.1,18.89,3.44c6.18,1.33,12.28,3.03,18.45,4.39
				c3.18,0.71,6.39,1.24,9.65,1.26c3.14,0.02,6.12-0.59,9.14-1.33C165.99,201.64,169.53,200.86,172.96,201.09z"/>
				<path style="fill:#EAF8F9;" d="M114.8,184.41c-2.09,0.4-4.1,0.14-6.18-0.14c-2.25-0.32-4.48-0.69-6.72-1.03
				c-3.63-0.54-7.35-0.97-11.02-0.75c-0.05-0.99-0.09-1.97-0.12-2.96c3.34-0.18,6.66,0.09,10.01,0.54c2.25,0.31,4.48,0.68,6.73,1.02
				c2.1,0.32,4.38,0.83,6.5,0.42C115.89,181.15,116.69,184.04,114.8,184.41z"/>
				<path style="fill:#EAF8F9;" d="M175.77,190.47c-0.25,0.95-0.5,1.9-0.75,2.86c-11.18-1.34-22.08-5.72-33.49-5.22
				c-1.94,0.08-1.93-2.92,0-3c7.55-0.33,14.94,1.46,22.25,3.13C167.72,189.14,171.73,190.03,175.77,190.47z"/>
				<path style="fill:#EAF8F9;" d="M111.524,135.299c-9.634,4.146-16.916,13.396-16.637,24.175c0.05,1.927,3.05,1.934,3,0
				c-0.254-9.815,6.448-17.84,15.151-21.585C114.806,137.129,113.28,134.544,111.524,135.299z"/>
				<path style="fill:#EAF8F9;" d="M123.233,150.416c-8.258,5.205-14.387,13.412-16.998,22.823c-0.517,1.863,2.377,2.658,2.893,0.798
				c2.402-8.657,8.015-16.237,15.619-21.03C126.376,151.98,124.872,149.383,123.233,150.416z"/>
				<path style="fill:#EAF8F9;" d="M131.859,161.458c-5.094,7.999-7.353,17.671-6.269,27.097c0.218,1.896,3.221,1.918,3,0
				c-1.03-8.954,1.015-17.977,5.859-25.583C135.49,161.339,132.895,159.833,131.859,161.458z"/>
				<path style="fill:#EAF8F9;" d="M153.196,177.084c-2.766-6.313-3.66-13.439-2.55-20.24c0.132-0.806-0.21-1.605-1.048-1.845
				c-0.715-0.205-1.715,0.25-1.845,1.048c-1.253,7.676-0.269,15.429,2.853,22.551C151.378,180.362,153.964,178.837,153.196,177.084z
				"/>
				<path style="fill:#EAF8F9;" d="M171.016,169.542c-2.902-5.395-4.823-11.24-5.747-17.294c-0.122-0.802-1.13-1.244-1.845-1.048
				c-0.857,0.235-1.17,1.041-1.048,1.845c0.962,6.305,3.029,12.395,6.05,18.01C169.341,172.757,171.932,171.244,171.016,169.542z"/>
				<path style="fill:#EAF8F9;" d="M173.21,136.71c-3.56,2.97-7.95,4.61-12.53,5.25c-4.58,0.65-9.21,0.47-13.79-0.11
				c-4.62-0.58-9.22-1.47-13.62-3.04c-4.37-1.56-8.51-3.75-12-6.83c-1.72-1.52-3.14-3.3-4.64-5.03c-1.14-1.31-2.37-2.62-3.88-3.48
				c0.98-0.52,1.97-1.03,2.95-1.55c2.78,2.16,4.77,5.28,7.41,7.68c6.56,5.97,15.76,8.3,24.36,9.33c7.37,0.88,15.88,0.93,22.23-3.32
				C170.87,135.99,172.04,136.35,173.21,136.71z"/>
			</g>
			<g>
				<g>
					<path style="fill:#F44063;" d="M189.448,411.844c-0.51,3.841-1.03,7.672-1.54,11.513c-0.096,0.693-0.212,1.444-0.712,1.935
					c-0.549,0.539-1.405,0.606-2.176,0.635h-0.029c-6.324,0.212-12.629,0.443-18.954,0.655h-0.067
					c-1.309-5.728-2.618-11.455-3.927-17.182c-0.443-1.944-0.866-4.072,0.058-5.833c0.308-0.587,0.77-1.117,0.924-1.771
					c0.318-1.328-0.683-2.56-1.434-3.706c-2.32-3.514-2.58-7.941-2.84-12.138c-0.433-7.133-1.049-14.247-1.839-21.341
					c-0.491-4.351-1.049-8.683-1.675-13.014c-0.279-1.925-0.635-3.985-2.012-5.362c-0.645-0.635-1.492-1.107-1.896-1.916
					c-0.472-0.934-0.231-2.05-0.125-3.09c0.337-3.292-0.857-6.536-2.021-9.626c-5.468-14.497-10.926-28.994-16.403-43.481
					c-2.243,0.318-4.476,0.635-6.719,0.953c-0.327,0.048-0.712,0.173-0.886,0.414l-0.77-0.558
					c-7.913,11.051-14.352,23.151-19.079,35.905c-0.799,2.166-1.569,4.37-2.878,6.267c-0.51,0.741-1.107,1.463-1.261,2.339
					c-0.125,0.655,0.019,1.328,0.193,1.964c0.847,3.234,1.993,7.431-0.77,9.318c-0.943,0.645-2.243,0.876-2.849,1.848
					c-0.385,0.626-0.375,1.405-0.366,2.137c0.424,20.725-0.645,41.488-3.186,62.059c-0.183,1.521-0.52,3.254-1.858,4.014
					c-0.51,0.298-1.107,0.385-1.694,0.424c-0.231,0.01-0.452,0.019-0.674,0.019c-6.709,0.077-13.428-0.568-20.003-1.935
					c-0.404-0.087-0.818-0.183-1.223-0.318c-0.76-0.26-1.463-0.664-1.819-1.367c-0.375-0.76-0.25-1.665-0.116-2.503
					c0.635-3.976,1.251-8.346-0.876-11.763c-1.001-1.617-2.638-3.1-2.493-4.996c0.077-1.078,0.732-2.002,1.213-2.965
					c1.636-3.225,1.473-7.027,1.251-10.637c-0.616-9.924-1.405-20.022,0.799-29.716c0.587-2.58,1.386-5.256,0.703-7.807
					c-0.356-1.338-1.107-2.57-1.213-3.947c-0.308-4.158,5.14-6.825,5.362-10.993c0.106-2.108-1.184-4.014-1.771-6.045
					c-0.732-2.541-0.366-5.256,0.029-7.864c3.292-21.649,8.298-43.019,14.94-63.879c25.605,11.84,55.205,11.984,83.111,7.451
					c3.369,15.488,6.093,31.111,8.182,46.821c0.241,1.762,0.462,3.552,0.192,5.304c-0.231,1.531-0.837,3.023-0.799,4.582
					c0.067,2.724,2.089,4.977,2.888,7.585c0.664,2.176,0.462,4.515,0.751,6.777c0.404,3.205,1.781,6.199,2.753,9.289
					c1.482,4.736,1.993,9.703,2.503,14.641c1.174,11.34,2.349,22.689,3.523,34.028c0.289,2.82,0.587,5.67,0.173,8.471
					c-0.289,1.983-0.934,3.937-0.76,5.939c0.231,2.715,1.944,5.111,2.349,7.807C189.862,408.725,189.66,410.304,189.448,411.844z"/>
					<path style="fill:#423D66;" d="M166.009,426.745c0.01-0.048,0.019-0.106,0.029-0.164c6.324-0.212,12.629-0.443,18.954-0.655
					c0.01,0,0.019,0,0.029,0c0.327,4.967,0.655,9.915,0.972,14.882c0.038,0.529,0.067,1.068,0.077,1.617
					c-2.31,1.405-5.285,1.964-8.047,2.185c-4.226,0.337-8.481,0.221-12.678-0.356c-1.271-0.173-2.686-0.481-3.35-1.579l-0.568-0.125
					c0.298-1.223,0.799-2.435,1.251-3.591C164.247,435.033,165.364,430.923,166.009,426.745z"/>
					<path style="fill:#423D66;" d="M90.656,415.203c0.424,3.562,0.837,7.133,1.271,10.695c-17.433,3.899-35.376,5.477-53.213,4.698
					l-0.241,0.039c-0.289-0.77-0.347-1.579,0.019-2.301c0.443-0.914,1.425-1.415,2.339-1.839
					c9.424-4.341,19.897-7.056,27.925-13.525c0.404,0.135,0.818,0.231,1.223,0.318c6.575,1.367,13.294,2.012,20.003,1.935
					C90.204,415.223,90.425,415.213,90.656,415.203z"/>
					<path style="fill:#1F1E42;" d="M186.07,442.426c0.048,1.973-0.144,3.966-1.309,5.525c-1.184,1.588-3.167,2.378-5.102,2.849
					c-4.235,1.03-8.76,0.886-12.928-0.395c-2.06-0.635-4.197-1.704-5.102-3.668c-0.606-1.319-0.539-2.753-0.202-4.187l0.568,0.125
					c0.664,1.097,2.079,1.405,3.35,1.579c4.197,0.578,8.452,0.693,12.678,0.356C180.785,444.389,183.759,443.831,186.07,442.426z"/>
					<path style="fill:#C61E47;" d="M157.654,299.238c0.279,21.793,0.029,43.596-0.741,65.371c-0.491-4.351-1.049-8.683-1.675-13.014
					c-0.279-1.925-0.635-3.985-2.012-5.362c-0.645-0.635-1.492-1.107-1.896-1.916c-0.472-0.934-0.231-2.05-0.125-3.09
					c0.337-3.292-0.857-6.536-2.021-9.626c-5.468-14.497-10.926-28.994-16.403-43.481c7.749-1.107,15.508-2.204,23.257-3.311
					l0.857-0.039C157.509,289.564,157.596,294.406,157.654,299.238z"/>
					<path style="fill:#1F1E42;" d="M92.418,430.066c0.087,0.751,0.154,1.608-0.327,2.195c-0.481,0.597-1.338,0.712-2.098,0.78
					c-11.195,1.001-22.381,2.002-33.576,3.003c-5.91,0.52-12.735,0.732-16.788-3.619c-0.472-0.51-0.905-1.136-1.155-1.79
					l0.241-0.039c17.837,0.78,35.78-0.799,53.213-4.698C92.091,427.284,92.254,428.68,92.418,430.066z"/>
				</g>
				<path style="fill:#C61E47;" d="M79.853,292.941c2.76-13.887,5.955-27.686,9.565-41.376c0.328-1.246-1.6-1.777-1.929-0.532
				c-3.237,12.274-6.14,24.635-8.695,37.069c-1.249,6.08-2.612,12.199-3.471,18.348c-0.361,2.585-0.504,5.321,0.405,7.816
				c0.93,2.554,3.13,4.281,4.18,6.738c0.408,0.954,0.629,2.158,0.263,3.159c-0.456,1.249-1.866,1.438-2.651,2.405
				c-1.17,1.443-0.436,3.216,0.193,4.715c0.217,0.516,0.745,1.44,0.559,2.032c-0.17,0.543-0.867,0.667-1.311,0.906
				c-0.461,0.248-0.87,0.545-1.206,0.949c-1.362,1.641-0.931,4.019-0.621,5.944c0.981,6.089-1.448,11.938-2.77,17.789
				c-1.362,6.024-2.196,12.175-2.49,18.343c-0.143,3-0.406,6.217,0.284,9.171c0.305,1.306,0.866,2.525,1.723,3.56
				c0.429,0.517,1.06,0.993,1.331,1.618c0.322,0.742-0.079,1.339-0.493,1.943c-0.766,1.119-1.486,2.095-1.626,3.489
				c-0.153,1.523,0.268,3.047,0.6,4.519c0.772,3.434,1.545,6.868,2.317,10.302c0.282,1.255,2.211,0.724,1.929-0.532
				c-0.685-3.044-1.369-6.088-2.054-9.132c-0.316-1.406-0.803-2.885-0.825-4.336c-0.023-1.535,0.826-2.381,1.585-3.597
				c1.359-2.178,0.377-3.703-1.115-5.422c-1.789-2.062-1.791-4.917-1.77-7.501c0.05-6.32,0.681-12.635,1.89-18.838
				c1.121-5.753,3.411-11.44,3.727-17.319c0.074-1.38-0.021-2.741-0.233-4.105c-0.173-1.115-0.428-2.269-0.292-3.402
				c0.264-2.191,3.239-1.941,3.422-4.294c0.131-1.679-1.09-3.002-1.351-4.591c-0.188-1.146,0.855-1.378,1.636-1.946
				c0.821-0.596,1.386-1.466,1.628-2.451c0.557-2.274-0.408-4.477-1.713-6.29c-0.778-1.081-1.665-2.096-2.31-3.267
				c-0.727-1.318-1.049-2.793-1.11-4.289c-0.116-2.856,0.535-5.698,1.051-8.49C78.668,299.01,79.25,295.973,79.853,292.941z"/>
				<path style="fill:#C61E47;" d="M172.559,396.304c0.233-2.961-2.409-4.025-4.433-5.452c-1.269-0.895-1.805-2.187-2.123-3.672
				c-0.42-1.964-0.643-3.984-0.947-5.968c-1.229-8.025-2.459-16.05-3.688-24.075c-1.38-9.008-2.76-18.015-4.14-27.023
				c-0.194-1.268-2.122-0.729-1.929,0.532l7.451,48.642c0.301,1.965,0.602,3.931,0.903,5.896c0.259,1.688,0.456,3.434,1.243,4.976
				c0.568,1.112,1.454,1.927,2.491,2.6c1.084,0.703,2.78,1.323,3.128,2.714c0.291,1.162-0.479,2.354-1.025,3.318
				c-0.632,1.117-1.339,2.258-1.578,3.538c-0.222,1.191,0.042,2.305,0.646,3.343c0.529,0.909,1.948,2.16,1.82,3.291
				c-0.091,0.804-1.12,1.382-1.623,1.93c-0.507,0.553-0.945,1.177-1.271,1.853c-0.655,1.359-0.903,2.875-0.862,4.376
				c0.091,3.334,1.37,6.54,2.776,9.516c0.55,1.163,2.274,0.149,1.727-1.009c-1.295-2.74-2.517-5.771-2.508-8.85
				c0.004-1.367,0.296-2.738,1.08-3.879c0.755-1.099,2.101-1.774,2.526-3.098c0.917-2.856-2.724-4.315-2.382-6.942
				C170.152,400.479,172.365,398.767,172.559,396.304z"/>
			</g>
		</g>
		<g>
			<g>
				<rect x="333.093" y="270.474" style="fill:#1F1E42;" width="143.298" height="15.644"/>
				<rect x="348.029" y="286.117" style="fill:#423D66;" width="110.581" height="7.528"/>
				<polygon style="fill:#1F1E42;" points="337.944,286.117 351.81,441.24 360.749,441.24 360.749,286.117 			"/>
				<polygon style="fill:#1F1E42;" points="470.012,286.117 456.146,441.24 447.208,441.24 447.208,286.117 			"/>
			</g>
			<rect x="380.534" y="261.522" style="fill:#CECEDB;" width="67.952" height="8.952"/>
			<polygon style="fill:#CECEDB;" points="469.84,185.67 448.322,261.522 439.017,261.522 461.228,183.227 		"/>
			<polygon style="fill:#F44063;" points="461.228,183.227 439.017,261.522 443.684,261.522 465.365,184.401 		"/>
		</g>
	</g>
</svg>
